<svg id="visual" viewBox="0 0 900 300" width="900" height="300" xmlns="http://www.w3.org/2000/svg" xmlns:xlink="http://www.w3.org/1999/xlink" version="1.1"><rect x="0" y="0" width="900" height="300" fill="#021526"></rect><path d="M0 164L25 159.8C50 155.7 100 147.3 150 141.7C200 136 250 133 300 134.7C350 136.3 400 142.7 450 146.5C500 150.3 550 151.7 600 158.5C650 165.3 700 177.7 750 185.7C800 193.7 850 197.3 875 199.2L900 201L900 301L875 301C850 301 800 301 750 301C700 301 650 301 600 301C550 301 500 301 450 301C400 301 350 301 300 301C250 301 200 301 150 301C100 301 50 301 25 301L0 301Z" fill="#125ab3"></path><path d="M0 136L25 142.7C50 149.3 100 162.7 150 176.8C200 191 250 206 300 199.2C350 192.3 400 163.7 450 151.2C500 138.7 550 142.3 600 147.8C650 153.3 700 160.7 750 161.5C800 162.3 850 156.7 875 153.8L900 151L900 301L875 301C850 301 800 301 750 301C700 301 650 301 600 301C550 301 500 301 450 301C400 301 350 301 300 301C250 301 200 301 150 301C100 301 50 301 25 301L0 301Z" fill="#0f54a7"></path><path d="M0 184L25 180.5C50 177 100 170 150 169.3C200 168.7 250 174.3 300 182.3C350 190.3 400 200.7 450 198.5C500 196.3 550 181.7 600 183.7C650 185.7 700 204.3 750 216.2C800 228 850 233 875 235.5L900 238L900 301L875 301C850 301 800 301 750 301C700 301 650 301 600 301C550 301 500 301 450 301C400 301 350 301 300 301C250 301 200 301 150 301C100 301 50 301 25 301L0 301Z" fill="#0d4d9c"></path><path d="M0 187L25 193C50 199 100 211 150 212.3C200 213.7 250 204.3 300 206.7C350 209 400 223 450 221.3C500 219.7 550 202.3 600 198.8C650 195.3 700 205.7 750 215.3C800 225 850 234 875 238.5L900 243L900 301L875 301C850 301 800 301 750 301C700 301 650 301 600 301C550 301 500 301 450 301C400 301 350 301 300 301C250 301 200 301 150 301C100 301 50 301 25 301L0 301Z" fill="#0a4790"></path><path d="M0 230L25 235C50 240 100 250 150 247.8C200 245.7 250 231.3 300 223.3C350 215.3 400 213.7 450 212.3C500 211 550 210 600 215.5C650 221 700 233 750 239.5C800 246 850 247 875 247.5L900 248L900 301L875 301C850 301 800 301 750 301C700 301 650 301 600 301C550 301 500 301 450 301C400 301 350 301 300 301C250 301 200 301 150 301C100 301 50 301 25 301L0 301Z" fill="#074184"></path><path d="M0 244L25 245.7C50 247.3 100 250.7 150 250.5C200 250.3 250 246.7 300 247.5C350 248.3 400 253.7 450 255C500 256.3 550 253.7 600 251.7C650 249.7 700 248.3 750 245C800 241.7 850 236.3 875 233.7L900 231L900 301L875 301C850 301 800 301 750 301C700 301 650 301 600 301C550 301 500 301 450 301C400 301 350 301 300 301C250 301 200 301 150 301C100 301 50 301 25 301L0 301Z" fill="#053a79"></path><path d="M0 289L25 285.7C50 282.3 100 275.7 150 274.3C200 273 250 277 300 277.2C350 277.3 400 273.7 450 272.3C500 271 550 272 600 270C650 268 700 263 750 261.5C800 260 850 262 875 263L900 264L900 301L875 301C850 301 800 301 750 301C700 301 650 301 600 301C550 301 500 301 450 301C400 301 350 301 300 301C250 301 200 301 150 301C100 301 50 301 25 301L0 301Z" fill="#03346e"></path></svg>