<svg height="948.609" viewBox="0 0 1293.834 948.609" width="1293.834" xmlns="http://www.w3.org/2000/svg"><path d="m518.106 860.537-150.008-674.848-360.132 60.785 150.008 674.848c3.796 17.076 20.234 28.658 36.727 25.874l300.423-50.707c16.49-2.783 26.777-18.876 22.982-35.952z" fill="#fff"/><path d="m189.797 948.606c-15.169 0-29.286-11.262-32.8-27.067l-150.007-674.848c-.059-.268-.006-.548.146-.775.153-.228.394-.382.664-.428l360.132-60.786c.517-.085 1.026.249 1.143.77l150.008 674.848c1.954 8.793.391 17.558-4.404 24.681-4.506 6.694-11.391 11.125-19.388 12.475l-300.423 50.707c-1.694.286-3.389.424-5.07.424zm-180.626-701.321 149.779 673.82c3.676 16.534 19.631 27.802 35.585 25.104l300.423-50.707c7.45-1.257 13.864-5.384 18.061-11.618 4.485-6.664 5.945-14.879 4.11-23.131l-149.801-673.92z" fill="#111"/><path d="m905.099 795.218-150.008-674.847-360.132 60.785 150.008 674.848c3.796 17.076 20.234 28.658 36.681 25.881l300.467-50.714c16.493-2.784 26.78-18.876 22.984-35.952z" fill="#fff"/><path d="m576.758 883.294c-15.15.002-29.253-11.266-32.768-27.073l-150.007-674.849c-.059-.268-.006-.548.146-.775.153-.228.394-.382.664-.428l360.131-60.785c.514-.09 1.027.249 1.143.769l150.009 674.848c1.954 8.792.391 17.557-4.403 24.68-4.507 6.694-11.393 11.125-19.392 12.476l-300.467 50.714c-1.688.285-3.38.423-5.056.423zm-180.593-701.328 149.779 673.82c3.675 16.533 19.611 27.803 35.538 25.111l300.467-50.714c7.452-1.258 13.867-5.385 18.064-11.62 4.484-6.663 5.944-14.877 4.109-23.129l-149.802-673.919-358.155 60.452z" fill="#111"/><path d="m1292.046 729.908-150.008-674.848-360.132 60.785 150.008 674.848c3.796 17.076 20.234 28.658 36.727 25.874l300.467-50.714c16.447-2.776 26.734-18.869 22.938-35.944z" fill="#fff"/><path d="m963.737 817.976c-15.169 0-29.286-11.262-32.8-27.067l-150.008-674.848c-.059-.268-.006-.548.146-.775.153-.228.394-.382.664-.428l360.132-60.785c.52-.093 1.026.249 1.143.769l150.008 674.848c1.955 8.797.39 17.566-4.407 24.694-4.5 6.686-11.369 11.108-19.341 12.454l-300.467 50.714c-1.694.286-3.389.424-5.07.424zm-180.626-701.321 149.779 673.82c3.676 16.534 19.632 27.806 35.585 25.104l300.467-50.714c7.425-1.253 13.822-5.372 18.014-11.598 4.488-6.668 5.949-14.887 4.113-23.144l-149.802-673.919-358.156 60.452z" fill="#111"/><path d="m325.201 132.048-300.423 50.706c-16.493 2.784-26.78 18.876-22.994 35.907l6.182 27.812 360.132-60.785-6.182-27.812c-3.786-17.031-20.224-28.613-36.715-25.829" fill="#fff"/><path d="m7.965 247.474c-.461 0-.872-.319-.976-.783l-6.183-27.812c-1.948-8.767-.384-17.513 4.405-24.628 4.509-6.698 11.398-11.131 19.399-12.481l300.423-50.707c16.973-2.868 33.96 9.066 37.857 26.599l6.183 27.812c.06.268.006.548-.146.775-.153.227-.394.382-.664.427l-360.131 60.784c-.056.01-.111.014-.167.014zm317.401-114.44-300.422 50.706c-7.454 1.258-13.872 5.388-18.072 11.626-4.479 6.656-5.94 14.852-4.111 23.078l5.977 26.885 358.156-60.452-5.954-26.784c-3.668-16.508-19.621-27.748-35.572-25.061z" fill="#111"/><path d="m712.191 66.73-300.467 50.714c-16.447 2.776-26.734 18.869-22.948 35.899l6.182 27.812 360.132-60.785-6.182-27.812c-3.786-17.031-20.224-28.613-36.717-25.829" fill="#b0c3ff"/><path d="m394.959 182.155c-.461 0-.872-.319-.976-.783l-6.183-27.813c-1.949-8.77-.384-17.521 4.407-24.64 4.503-6.69 11.375-11.116 19.352-12.461l300.467-50.714.166.986-.166-.986c16.972-2.868 33.961 9.065 37.859 26.598l6.182 27.813c.06.268.006.548-.146.775-.153.227-.394.382-.664.427l-360.131 60.785c-.056.01-.111.014-.167.014zm322.156-114.838c-1.578 0-3.166.13-4.757.398l-300.467 50.714c-7.43 1.254-13.831 5.376-18.024 11.606-4.482 6.66-5.943 14.86-4.113 23.09l5.977 26.885 358.155-60.452-5.953-26.785c-3.304-14.863-16.57-25.458-30.817-25.458z" fill="#111"/><path d="m1099.184 1.411-300.467 50.714c-16.493 2.784-26.78 18.876-22.994 35.907l6.182 27.812 360.132-60.785-6.182-27.812c-3.786-17.031-20.224-28.613-36.671-25.837" fill="#3658c1"/><path d="m781.905 116.845c-.461 0-.872-.319-.976-.783l-6.183-27.813c-1.948-8.767-.384-17.513 4.405-24.628 4.509-6.698 11.398-11.131 19.399-12.481l300.468-50.715c16.945-2.862 33.916 9.073 37.813 26.606l6.183 27.812c.06.268.006.548-.146.775-.153.227-.394.382-.664.427l-360.132 60.785c-.056.01-.111.014-.167.014zm317.279-115.434.166.986-300.467 50.714c-7.454 1.258-13.872 5.388-18.072 11.626-4.479 6.656-5.94 14.852-4.111 23.078l5.977 26.885 358.156-60.452-5.954-26.784c-3.669-16.51-19.611-27.754-35.528-25.068l-.166-.986z" fill="#111"/><path d="m330.911 216.982-275.036 46.422c-12.024 2.03-19.524 13.765-16.757 26.214l17.251 77.609c2.768 12.451 14.753 20.895 26.777 18.866l275.036-46.422c12.022-2.029 19.522-13.762 16.754-26.213l-17.251-77.609c-2.767-12.449-14.753-20.895-26.775-18.866" fill="#b0c3ff"/><path d="m79.574 387.391c-11.185 0-21.591-8.299-24.181-19.948l-17.251-77.609c-1.441-6.483-.286-12.949 3.251-18.205 3.327-4.943 8.411-8.215 14.315-9.211l275.036-46.422c12.516-2.116 25.041 6.696 27.917 19.635l17.252 77.609c1.441 6.484.286 12.95-3.251 18.207-3.327 4.942-8.41 8.213-14.313 9.209l-275.036 46.422c-1.249.211-2.5.313-3.739.313zm251.337-170.41.166.986-275.036 46.422c-5.357.904-9.97 3.872-12.988 8.356-3.229 4.797-4.278 10.711-2.957 16.655l17.251 77.609c2.648 11.917 14.136 20.035 25.635 18.097l275.036-46.422c5.356-.904 9.969-3.872 12.986-8.354 3.229-4.797 4.278-10.712 2.957-16.656l-17.252-77.609c-2.647-11.916-14.14-20.03-25.632-18.097l-.166-.986z" fill="#111"/><path d="m365.23 371.372-275.036 46.422c-12.024 2.03-19.524 13.762-16.757 26.211l17.241 77.564c2.767 12.449 14.752 20.893 26.776 18.863l275.036-46.422c12.022-2.029 19.522-13.762 16.755-26.211l-17.241-77.564c-2.767-12.449-14.752-20.893-26.774-18.864" fill="#b0c3ff"/><path d="m113.879 541.732c-11.183 0-21.589-8.299-24.179-19.945l-17.241-77.564c-1.44-6.483-.286-12.948 3.252-18.203 3.327-4.943 8.411-8.214 14.316-9.21l275.036-46.422c12.518-2.117 25.04 6.694 27.916 19.632l17.241 77.564c1.441 6.483.287 12.948-3.251 18.203-3.326 4.943-8.41 8.214-14.314 9.21l-275.036 46.422c-1.25.211-2.5.313-3.74.313zm254.936-169.66c-1.134 0-2.276.093-3.419.286l-275.036 46.422c-5.358.905-9.972 3.872-12.989 8.355-3.229 4.796-4.279 10.71-2.958 16.653l17.241 77.564c2.648 11.916 14.132 20.036 25.634 18.094l275.036-46.422c5.357-.904 9.97-3.872 12.987-8.355 3.229-4.796 4.278-10.71 2.957-16.653l-17.241-77.564c-2.385-10.73-11.946-18.38-22.212-18.38zm-3.585-.7h.01z" fill="#111"/><path d="m399.537 525.712-275.036 46.422c-12.024 2.03-19.524 13.765-16.757 26.214l17.251 77.609c2.767 12.449 14.753 20.895 26.777 18.866l275.036-46.422c12.022-2.029 19.521-13.764 16.754-26.213l-17.251-77.609c-2.767-12.449-14.753-20.895-26.775-18.866" fill="#b0c3ff"/><path d="m148.199 696.122c-11.184 0-21.59-8.299-24.18-19.948l-17.251-77.609c-1.441-6.483-.286-12.948 3.251-18.205 3.327-4.943 8.411-8.215 14.315-9.211l275.036-46.422.166.986-.166-.986c12.51-2.112 25.041 6.694 27.917 19.635l17.252 77.609c1.44 6.484.286 12.95-3.253 18.207-3.326 4.942-8.409 8.212-14.312 9.208l-275.036 46.422c-1.249.211-2.5.313-3.74.313zm254.923-169.71c-1.134 0-2.276.093-3.419.286l-275.036 46.422c-5.357.905-9.971 3.873-12.988 8.356-3.229 4.797-4.278 10.711-2.957 16.654l17.251 77.609c2.649 11.918 14.146 20.034 25.635 18.097l275.036-46.422c5.355-.904 9.968-3.871 12.984-8.354 3.229-4.797 4.28-10.713 2.959-16.657l-17.252-77.609c-2.385-10.731-11.947-18.383-22.213-18.383z" fill="#111"/><path d="m433.856 680.102-275.036 46.422c-12.024 2.03-19.524 13.762-16.757 26.211l17.241 77.564c2.767 12.449 14.752 20.893 26.776 18.863l275.036-46.422c12.022-2.029 19.522-13.762 16.755-26.211l-17.241-77.564c-2.767-12.449-14.752-20.893-26.774-18.864" fill="#b0c3ff"/><path d="m182.506 850.462c-11.184 0-21.59-8.298-24.18-19.945l-17.241-77.564c-1.44-6.483-.286-12.947 3.251-18.202 3.328-4.943 8.412-8.215 14.317-9.211l275.035-46.422c12.521-2.113 25.04 6.695 27.917 19.632l17.241 77.564c1.44 6.483.287 12.948-3.251 18.203-3.326 4.943-8.41 8.214-14.314 9.211l-275.036 46.422c-1.249.211-2.5.313-3.739.313zm251.515-169.374-275.035 46.422c-5.358.905-9.972 3.873-12.99 8.356-3.228 4.796-4.278 10.709-2.957 16.652l17.241 77.564c2.647 11.916 14.134 20.039 25.634 18.094l275.036-46.422c5.357-.904 9.97-3.871 12.987-8.354 3.229-4.796 4.278-10.71 2.957-16.653l-17.241-77.564c-2.647-11.915-14.135-20.034-25.632-18.095z" fill="#111"/><path d="m717.904 151.663-275.039 46.422c-12.022 2.029-19.521 13.764-16.754 26.213l17.251 77.609c2.768 12.451 14.753 20.895 26.775 18.866l275.039-46.422c12.022-2.029 19.522-13.762 16.754-26.213l-17.251-77.609c-2.767-12.449-14.753-20.895-26.775-18.866" fill="#b0c3ff"/><path d="m466.564 322.073c-11.183 0-21.588-8.299-24.178-19.948l-17.252-77.609c-1.44-6.484-.286-12.95 3.252-18.207 3.327-4.943 8.41-8.213 14.313-9.209l275.039-46.422c12.521-2.112 25.04 6.696 27.917 19.635l17.251 77.609c1.441 6.484.287 12.95-3.25 18.206-3.327 4.943-8.41 8.213-14.314 9.209l-275.038 46.422c-1.249.211-2.499.313-3.739.313zm251.34-170.41.166.986-275.039 46.422c-5.355.904-9.968 3.871-12.985 8.354-3.229 4.797-4.279 10.712-2.958 16.656l17.252 77.609c2.648 11.918 14.155 20.037 25.632 18.097l275.038-46.422c5.357-.904 9.97-3.871 12.987-8.354 3.229-4.796 4.278-10.711 2.956-16.656l-17.251-77.609c-2.648-11.916-14.142-20.03-25.632-18.097z" fill="#111"/><path d="m752.222 306.053-275.039 46.422c-12.022 2.029-19.522 13.762-16.755 26.211l17.241 77.564c2.767 12.449 14.752 20.893 26.774 18.864l275.039-46.422c12.022-2.029 19.522-13.762 16.755-26.211l-17.241-77.564c-2.767-12.449-14.752-20.893-26.774-18.864" fill="#b0c3ff"/><path d="m500.873 476.413c-11.183 0-21.589-8.299-24.179-19.946l-17.241-77.564c-1.441-6.483-.287-12.948 3.251-18.203 3.326-4.943 8.41-8.214 14.314-9.21l275.038-46.422c12.522-2.115 25.04 6.695 27.917 19.632l17.241 77.564c1.44 6.483.286 12.948-3.252 18.204-3.326 4.943-8.41 8.214-14.313 9.21l-275.038 46.422c-1.249.211-2.499.313-3.738.313zm251.516-169.374-275.038 46.422c-5.357.905-9.97 3.872-12.987 8.355-3.229 4.796-4.278 10.71-2.957 16.653l17.241 77.564c2.648 11.915 14.146 20.032 25.632 18.095l275.038-46.422c5.356-.904 9.969-3.872 12.986-8.355 3.229-4.796 4.279-10.71 2.958-16.653l-17.241-77.564c-2.648-11.915-14.147-20.027-25.632-18.095z" fill="#111"/><path d="m1104.85 86.353-275.036 46.422c-12.024 2.03-19.524 13.765-16.757 26.214l17.251 77.609c2.768 12.451 14.753 20.895 26.777 18.866l275.036-46.422c12.022-2.029 19.522-13.762 16.754-26.213l-17.251-77.609c-2.767-12.449-14.753-20.895-26.775-18.866" fill="#b0c3ff"/><path d="m853.512 256.762c-11.184 0-21.59-8.299-24.18-19.948l-17.251-77.609c-1.441-6.483-.286-12.949 3.251-18.205 3.327-4.943 8.411-8.215 14.315-9.211l275.036-46.422.166.986-.166-.986c12.512-2.111 25.041 6.694 27.917 19.635l17.252 77.609c1.441 6.484.286 12.95-3.251 18.206-3.327 4.942-8.41 8.213-14.313 9.209l-275.036 46.422c-1.249.211-2.5.313-3.74.313zm251.504-169.424-275.036 46.422c-5.357.904-9.97 3.872-12.988 8.356-3.229 4.797-4.278 10.711-2.957 16.655l17.251 77.609c2.648 11.918 14.149 20.039 25.635 18.097l275.036-46.422c5.356-.905 9.969-3.872 12.986-8.354 3.229-4.796 4.278-10.711 2.957-16.656l-17.252-77.609c-2.648-11.917-14.137-20.033-25.632-18.097z" fill="#111"/><path d="m1139.169 240.743-275.036 46.422c-12.024 2.03-19.524 13.762-16.757 26.211l17.241 77.564c2.767 12.449 14.752 20.893 26.776 18.863l275.036-46.422c12.022-2.029 19.522-13.762 16.755-26.211l-17.241-77.564c-2.767-12.449-14.752-20.893-26.774-18.864" fill="#b0c3ff"/><path d="m887.819 411.102c-11.183 0-21.589-8.299-24.179-19.945l-17.241-77.564c-1.44-6.483-.286-12.948 3.252-18.203 3.327-4.943 8.411-8.214 14.316-9.21l275.036-46.422c12.521-2.116 25.039 6.694 27.916 19.632l17.241 77.564c1.441 6.483.287 12.948-3.251 18.203-3.326 4.943-8.41 8.214-14.314 9.21l-275.036 46.422c-1.25.211-2.5.313-3.74.313zm254.936-169.66c-1.134 0-2.276.093-3.419.286l-275.036 46.422c-5.358.905-9.972 3.872-12.989 8.355-3.229 4.796-4.279 10.71-2.958 16.653l17.241 77.564c2.648 11.916 14.147 20.031 25.634 18.094l275.036-46.422c5.357-.904 9.97-3.872 12.987-8.355 3.229-4.796 4.278-10.71 2.957-16.653l-17.241-77.564c-2.385-10.73-11.947-18.381-22.212-18.381zm-3.585-.7h.01z" fill="#111"/><path d="m1042.116 436.351-302.445 51.048c-13.222 2.232-21.469 15.137-18.426 28.826l18.971 85.343c3.043 13.689 16.223 22.978 29.445 20.746l302.445-51.048c13.22-2.231 21.467-15.136 18.424-28.825l-18.971-85.343c-3.043-13.689-16.223-22.978-29.443-20.746" fill="#3658c1"/><path d="m765.73 623.643c-12.252 0-23.653-9.094-26.491-21.858l-18.971-85.344c-1.578-7.103-.314-14.185 3.561-19.942 3.644-5.413 9.211-8.995 15.677-10.086l302.444-51.048c13.712-2.316 27.433 7.337 30.585 21.515l18.971 85.343c1.578 7.103.314 14.186-3.562 19.943-3.643 5.413-9.209 8.994-15.673 10.085l-302.444 51.048c-1.368.231-2.738.343-4.097.343zm280.327-186.622c-1.252 0-2.514.103-3.775.316l-302.444 51.048c-5.919 1-11.016 4.278-14.35 9.231-3.565 5.298-4.726 11.829-3.267 18.392l18.971 85.344c2.924 13.156 15.631 22.116 28.303 19.977l302.444-51.048c5.917-.999 11.013-4.277 14.346-9.23 3.566-5.298 4.727-11.83 3.268-18.393l-18.971-85.343c-2.633-11.847-13.19-20.293-24.524-20.293zm-3.941-.67h.01z" fill="#111"/></svg>