<svg xmlns="http://www.w3.org/2000/svg" viewBox="0 0 3000 3000" width="3000" height="3000"><g transform="translate(1232.3999999999999 2000.3999999999999) rotate(46.00574155426074 -521.4 247.19999999999993) scale(-1.4209426894624317 1.4231638336763623)"><svg width="733.879" height="347.395" viewBox="0 0 733.879 347.395"><path d="M1.292 1.894c-.289.466-.291.919-.292 1.068.002.12.026.239.061.357.129.573.466.884.632 1.022-.05-.038-.079-.124-.082-.26-.01-.513.361-1.55.829-2.316.308-.504.581-.765.735-.736-1.13-.191-1.727.614-1.883.865z" fill="#fff"/><g fill="#111"><path d="M1.692 5.341a.989.989 0 0 1-.606-.206c-.019-.014-.038-.028-.056-.045a2.807 2.807 0 0 1-.937-1.518A2.233 2.233 0 0 1 0 2.979c0-.603.149-1.14.442-1.612C.933.577 1.943-.185 3.327.041a1 1 0 0 1 .186 1.93 2.797 2.797 0 0 0-.221.316c-.383.627-.627 1.365-.673 1.677a.998.998 0 0 1-.927 1.377z"/><path d="M3.167 1.028c-.155-.019-.424.241-.727.737a6.745 6.745 0 0 0-.406.783c-.258.586-.43 1.182-.423 1.534.003.13.029.214.075.255l15.815 13.96c-.206-.182-.325-.558-.337-1.139-.031-1.571.734-4.234 1.889-6.855.396-.899.839-1.794 1.31-2.637.164-.294.332-.581.503-.861 1.355-2.217 2.559-3.38 3.251-3.298z"/><path d="M17.502 19.296a.994.994 0 0 1-.661-.25h-.001L1.025 5.086c-.187-.167-.405-.471-.413-.99-.014-.692.35-1.596.507-1.952a7.972 7.972 0 0 1 .467-.9c.345-.566.887-1.309 1.7-1.21l20.937 2.478.009.001h.004a1 1 0 0 1 .875 1.11.988.988 0 0 1-1.034.882c-.253.097-1.091.75-2.355 2.82a22.71 22.71 0 0 0-.483.827 30.197 30.197 0 0 0-1.269 2.553c-1.123 2.548-1.831 5.072-1.804 6.433.006.276.041.414.058.465a1 1 0 0 1-.722 1.693zM2.643 3.846l13.619 12.021c.237-1.626.899-3.751 1.877-5.969.419-.951.874-1.867 1.353-2.722.171-.305.346-.604.523-.895.538-.882 1.023-1.561 1.458-2.082L3.438 2.067c-.04.056-.089.127-.145.219l-.088.15a6.79 6.79 0 0 0-.255.513 4.94 4.94 0 0 0-.307.897zm-.031.215c0 .001 0 .001 0 0zm.436-2.04h.006-.006z"/></g><path d="M24.118 3.505c-3.461 1.405-7.908 11.284-6.617 14.792l52.017 45.912c-4.638-10.83 12.992-50.85 23.507-52.551z" fill="#fff"/><path d="M69.518 65.209a1 1 0 0 1-.662-.25L16.839 19.047a1.004 1.004 0 0 1-.276-.404c-1.456-3.957 3.241-14.466 7.18-16.064a.988.988 0 0 1 .493-.066l68.906 8.153a1 1 0 0 1 .042 1.981c-3.339.54-8.151 5.988-12.875 14.574-6.937 12.608-12.559 30.322-9.872 36.596a.999.999 0 0 1-.919 1.392zM18.371 17.731 67.846 61.4c-.823-8.405 4.344-23.571 10.71-35.144 2.362-4.293 6.496-10.964 10.826-14.021L24.281 4.532c-2.872 1.505-6.716 10.092-5.91 13.199z" fill="#111"/><path d="M93.025 11.658c-8.86.51-27.915 38.159-23.507 52.551l580.786 259.766c-.25-17.76 17.128-48.976 23.578-52.705z" fill="#3658C1"/><path d="M650.303 324.975a.985.985 0 0 1-.408-.087L69.11 65.122a.998.998 0 0 1-.548-.62C65.179 53.458 74.697 30.99 82.568 19.68c2.786-4.002 6.852-8.815 10.399-9.02a.952.952 0 0 1 .466.085l580.856 259.611a1.001 1.001 0 0 1 .093 1.778c-5.75 3.325-23.331 33.942-23.079 51.826a1 1 0 0 1-1 1.015zM70.352 63.487l578.972 258.955c.653-16.944 15.193-44.256 22.611-50.946L92.859 12.68c-2.112.307-5.243 3.25-8.649 8.143-8.696 12.493-16.345 33.172-13.858 42.664z" fill="#111"/><path d="M666.663 334.979c.726.181 1.491.179 2.235-.126l4.169-1.708c-2.205.903-3.584-.424-3.66-4.233-.161-8.162 5.728-24.632 13.154-36.786 6.372-10.429 11.806-14.292 13.322-10.021l-1.507-4.247c-.3-.845-.763-1.44-1.385-1.734l-14.755-6.597c-2.519-1.126-7.349 3.135-12.882 11.941-.202.322-.405.65-.609.983-3.649 5.972-6.966 12.877-9.521 19.514-3.251 8.446-5.269 16.459-5.168 21.563.054 2.755.72 4.347 1.851 4.853z" fill="#B0C3FF"/><path d="M667.624 336.102c-.392 0-.794-.051-1.203-.152a1.063 1.063 0 0 1-.167-.058l-14.754-6.597c-1.56-.698-2.381-2.632-2.443-5.747-.1-5.043 1.809-13.04 5.234-21.942 2.659-6.906 6.068-13.894 9.601-19.676.206-.337.411-.668.616-.993 2.749-4.376 9.624-14.327 14.137-12.322l14.755 6.597c.883.417 1.522 1.192 1.92 2.313l1.507 4.246a.999.999 0 1 1-1.884.668c-.347-.976-.793-1.021-.961-1.039-1.736-.172-5.664 3.229-10.565 11.248-7.33 11.998-13.166 28.257-13.008 36.245.051 2.527.688 3.215.959 3.393.295.194.74.171 1.318-.064l.004-.002a1.002 1.002 0 0 1 .758 1.852l-4.169 1.707a4.376 4.376 0 0 1-1.655.323zm-.639-2.074c.554.121 1.071.089 1.534-.101l1.165-.478c-.806-.905-1.234-2.42-1.276-4.518-.164-8.31 5.803-25.055 13.301-37.327 2.819-4.613 8.081-12.211 12.152-12.211l-.426-1.201c-.213-.601-.506-.992-.87-1.164l-14.736-6.588c-1.645-.74-5.979 2.572-11.627 11.56-.199.318-.4.642-.603.973-3.472 5.682-6.824 12.555-9.44 19.352-3.337 8.669-5.196 16.391-5.102 21.185.043 2.178.503 3.621 1.261 3.96z" fill="#111"/><path d="m719.85 291.823-25.206-11.27c-2.256-1.009-6.581 2.808-11.536 10.693a87.45 87.45 0 0 0-.546.881c-3.268 5.348-6.238 11.532-8.526 17.475-2.912 7.564-4.719 14.74-4.628 19.311.049 2.467.645 3.893 1.658 4.346l25.32 11.32c11.632 4.574 22.517.418 29.865-11.403v.001c9.028-14.524 10.549-32.942-6.401-41.354z" fill="#fff"/><path d="M705.511 347.409c-3.07 0-6.252-.626-9.491-1.899l-25.362-11.338c-1.437-.644-2.193-2.405-2.25-5.239-.089-4.531 1.623-11.708 4.695-19.69 2.385-6.194 5.441-12.457 8.605-17.637.186-.303.369-.601.554-.893 3.075-4.895 8.824-12.842 12.79-11.072l25.206 11.27.036.018c6.594 3.271 10.85 8.145 12.651 14.481 2.342 8.238.212 18.552-5.845 28.296-5.589 8.99-13.167 13.703-21.589 13.703zm-11.654-66.015c-1.49 0-5.015 2.605-9.902 10.384-.18.285-.359.575-.539.87-3.104 5.079-6.104 11.228-8.445 17.312-2.984 7.75-4.646 14.65-4.562 18.933.037 1.88.436 3.17 1.066 3.452l25.32 11.32c11.096 4.364 21.539.354 28.607-11.019 5.76-9.265 7.809-18.994 5.62-26.691-1.639-5.767-5.541-10.217-11.599-13.229l-25.188-11.261a.927.927 0 0 0-.378-.071z" fill="#111"/></svg></g><g transform="translate(146.4 439.2) rotate(5.480320219409815 1206.0 1003.1999999999999) scale(1.4745502530027457 1.4755013387909626)"><svg width="1635.753" height="1359.809" viewBox="0 0 1635.753 1359.809"><linearGradient id="a" gradientUnits="userSpaceOnUse" x1="985.695" x2="620.015" y1="1189.189" y2="218.358"><stop offset="0" stop-color="#111"/><stop offset=".49" stop-color="#3658c1"/><stop offset="1" stop-color="#b0c3ff"/></linearGradient><path d="M1584.6 967.922 433.682 1341.877c-40.651 13.208-86.537-9.918-102.523-51.669L20.225 478.157c-11.721-30.61-4.108-62.712 16.808-82.87L23.319 408.5C2.4 428.662-5.21 460.764 6.51 491.374l310.935 812.051c15.986 41.751 61.872 64.877 102.522 51.669l1150.916-373.955a71.958 71.958 0 0 0 27.837-16.617l13.714-13.217a71.944 71.944 0 0 1-27.834 16.617z" fill="url(#a)"/><path d="M396.485 1359.791c-33.9 0-66.9-21.867-79.975-56.009L5.577 491.731C-5.895 461.772.8 428.821 22.625 407.785l13.714-13.218a1 1 0 1 1 1.388 1.44C16.478 416.486 9.975 448.591 21.158 477.8l310.935 812.05c15.769 41.185 61.2 64.1 101.28 51.076l1150.915-373.955.309.951-.309-.951a70.645 70.645 0 0 0 27.452-16.386 1 1 0 1 1 1.388 1.44l-13.714 13.217a72.63 72.63 0 0 1-28.222 16.848L420.276 1356.045a76.854 76.854 0 0 1-23.791 3.746zM25.574 407.719l-1.562 1.506C2.763 429.7-3.74 461.808 7.444 491.017l310.934 812.05c15.77 41.185 61.2 64.1 101.28 51.076l1150.916-373.956a70.631 70.631 0 0 0 27.452-16.385l1.555-1.5a74.365 74.365 0 0 1-14.675 6.569L433.991 1342.828c-41.072 13.342-87.622-10.1-103.766-52.263L19.291 478.514c-9.296-24.278-6.665-50.52 6.283-70.795z" fill="#111"/><path d="M1215.786 4.715c40.65-13.208 86.536 9.917 102.522 51.669l310.934 812.051c15.987 41.751-3.995 86.279-44.645 99.487L433.682 1341.877c-40.651 13.208-86.537-9.918-102.523-51.669L20.225 478.157C4.238 436.405 24.22 391.878 64.87 378.67z" fill="#b0c3ff"/><path d="M410.2 1346.574c-33.894 0-66.9-21.867-79.975-56.009L19.291 478.514c-8.078-21.1-7.422-43.4 1.847-62.816a72.444 72.444 0 0 1 43.423-37.979L1215.477 3.764c41.072-13.343 87.621 10.1 103.765 52.262l310.934 812.052c8.078 21.1 7.422 43.4-1.847 62.815a72.44 72.44 0 0 1-43.423 37.98L433.991 1342.828a76.854 76.854 0 0 1-23.791 3.746zM1239.286 2.015a74.906 74.906 0 0 0-23.186 3.651L65.179 379.622a70.458 70.458 0 0 0-42.237 36.939c-9.029 18.911-9.663 40.659-1.784 61.238l310.935 812.052c12.771 33.354 45.007 54.724 78.088 54.727a74.859 74.859 0 0 0 23.192-3.652l1150.915-373.955a70.461 70.461 0 0 0 42.236-36.939c9.03-18.912 9.664-40.66 1.785-61.24L1317.374 56.741c-12.774-33.354-45.007-54.726-78.088-54.726z" fill="#111"/><path d="m1578.248 861.172-294.71-769.68c-11.884-31.035-46-48.229-76.216-38.411L104.385 411.447c-30.219 9.819-45.073 42.924-33.19 73.959l294.711 769.68c11.884 31.037 46.015 48.275 76.233 38.456l1102.937-358.366c30.224-9.818 45.056-42.967 33.172-74.004z" fill="#fff"/><g fill="#111"><path d="M424.7 1297.289c-25.308 0-49.959-16.339-59.726-41.845L70.261 485.763c-6.029-15.748-5.538-32.4 1.383-46.9a54.109 54.109 0 0 1 32.432-28.363L1207.013 52.13c30.661-9.964 65.408 7.535 77.459 39.005l294.709 769.68c6.037 15.764 5.544 32.439-1.387 46.953a54.075 54.075 0 0 1-32.409 28.359L442.448 1294.494a57.349 57.349 0 0 1-17.748 2.795zM1224.794 51.33a55.431 55.431 0 0 0-17.163 2.7L104.694 412.4a52.128 52.128 0 0 0-31.245 27.327c-6.683 14-7.152 30.092-1.32 45.323l294.71 769.681c11.685 30.515 45.324 47.5 74.991 37.862l1102.937-358.368a52.1 52.1 0 0 0 31.223-27.319c6.692-14.014 7.162-30.129 1.324-45.376L1282.6 91.85c-9.453-24.696-33.316-40.52-57.806-40.52zM193.549 867.866a9.21 9.21 0 0 0-5.563 12.311 10.475 10.475 0 0 0 12.734 6.423 9.242 9.242 0 0 0 5.5-12.343 10.42 10.42 0 0 0-12.672-6.386"/><path d="M197.812 888.053a11.7 11.7 0 0 1-10.76-7.519 10.605 10.605 0 0 1 .255-8.437 9.889 9.889 0 0 1 5.933-5.182 11.441 11.441 0 0 1 13.915 6.98 10.687 10.687 0 0 1-.261 8.5 9.8 9.8 0 0 1-5.865 5.146 10.408 10.408 0 0 1-3.217.512zm-3.954-19.236a7.907 7.907 0 0 0-4.746 4.141 8.624 8.624 0 0 0-.192 6.861 9.47 9.47 0 0 0 11.491 5.825 7.812 7.812 0 0 0 4.678-4.106 8.705 8.705 0 0 0 .2-6.929 9.421 9.421 0 0 0-11.429-5.792z"/></g></svg></g><g transform="translate(397.2 654.0) rotate(0.08161247699384133 949.7999999999998 738.0) scale(1.4944524471304794 1.4957028942256343)"><svg width="1271.101" height="986.827" viewBox="0 0 1271.101 986.827"><g fill="#111"><path d="M7.984 653.15c-5.095 1.155-8.06 6.261-6.621 11.397 1.441 5.145 6.74 8.369 11.835 7.215s8.063-6.252 6.621-11.397c-1.439-5.137-6.74-8.37-11.835-7.215"/><path d="M11.117 672.994c-4.817 0-9.354-3.312-10.717-8.177-.781-2.788-.421-5.65 1.015-8.059 1.397-2.344 3.651-3.972 6.348-4.583 5.6-1.267 11.44 2.284 13.019 7.92.782 2.79.422 5.653-1.012 8.06-1.396 2.344-3.652 3.971-6.351 4.583-.767.172-1.538.256-2.302.256zM7.984 653.15l.221.975c-2.157.489-3.958 1.787-5.072 3.656-1.152 1.934-1.439 4.24-.807 6.496 1.296 4.626 6.074 7.549 10.651 6.509 2.159-.489 3.962-1.788 5.075-3.656 1.151-1.932 1.437-4.239.805-6.496-1.296-4.626-6.074-7.547-10.651-6.509z"/></g><path d="m1042.032 436.882 76.84-17.413" fill="#fff"/><path d="M1042.031 437.883a1 1 0 0 1-.22-1.975l76.84-17.413a1 1 0 0 1 .442 1.95l-76.84 17.413a1.057 1.057 0 0 1-.222.025z" fill="#111"/><path d="M227.353 629.38a72.108 72.108 0 0 1-6.765-15.98c-6.796-23.659-.658-47.258 14.18-63.564 5.731-6.296 7.118-15.509 3.408-23.592a72.218 72.218 0 0 1-3.945-10.732c-6.635-23.687-.327-47.282 14.68-63.499 6.105-6.593 7.113-16.434 2.788-24.777a70.636 70.636 0 0 1-5.333-13.512c-6.767-24.159.29-48.221 16.429-64.023 3.885-3.796 5.968-9.044 6.056-14.588.47-31.178 16.263-62.319 60.548-72.618.187-.044.374-.087.563-.129 8.03-1.819 16.987-2.961 26.941-3.307a105.373 105.373 0 0 1 6.321-1.638c40.756-9.236 69.16 10.56 86.013 35.549.298.34.575.694.811 1.082 2.998 4.845 7.597 8.579 13.018 10.266 22.528 7.04 41.427 25.22 48.194 49.379a68.451 68.451 0 0 1 2.421 14.171c.586 9.19 6.658 17.427 15.508 20.632 20.825 7.552 38.204 24.453 45.469 46.669 5.995 5.186 13.169 14.384 20.459 30.63l.04-.009c.18.401.445.775.863 1.028.51.31 1.091.391 1.617.271a1.995 1.995 0 0 0 1.287-.929l39.821-68.244c1.115-1.91 3.025-3.184 5.149-3.665 2.132-.483 4.477-.173 6.465 1.034 4.126 2.499 5.58 7.719 3.268 11.668l-12.201 20.919-15.102 25.876c-.579.981-.212 2.292.817 2.917.513.308 1.095.389 1.62.27s.994-.438 1.284-.928l15.101-25.877 16.382-28.07c1.147-1.972 3.024-3.251 5.128-3.728 2.106-.477 4.439-.15 6.493 1.094 4.1 2.496 5.564 7.723 3.268 11.668l-4.173 7.15-12.366 21.177-14.945 25.62c-.579.982-.212 2.292.817 2.917a2.205 2.205 0 0 0 1.624.272 1.971 1.971 0 0 0 1.279-.93l14.945-25.62 12.366-21.177c1.115-1.91 3.022-3.171 5.149-3.653s4.473-.185 6.465 1.021c4.1 2.496 5.58 7.719 3.271 11.676l-10.417 17.837-.017.029-10.317 17.679-.006.01-10.729 18.384c-.577.989-.212 2.292.817 2.917.515.313 1.096.395 1.621.276s.993-.44 1.282-.934l10.734-18.394 10.317-17.678.017-.03c1.116-1.889 3.016-3.137 5.132-3.617 2.127-.482 4.474-.187 6.465 1.015 4.1 2.496 5.568 7.738 3.273 11.684l-29.402 50.356c-3.87 6.631-7.902 12.347-12.069 17.132l29.78 65-3.572.809-463.62 105.06-.18-30.028c-.08-13.283 2.514-26.046 7.395-37.674m419.043-493.071L24.387 277.262c-2.442.553-3.866 2.992-3.18 5.438L140.98 710.293c.687 2.453 3.225 3.994 5.667 3.441l622.01-140.953c2.442-.553 3.865-2.992 3.178-5.445L652.061 139.743c-.685-2.446-3.223-3.987-5.665-3.434" fill="#fff"/><path d="M145.65 714.845c-2.535 0-4.919-1.734-5.633-4.282L20.243 282.97c-.41-1.463-.218-2.969.54-4.241a5.243 5.243 0 0 1 3.382-2.442l622.01-140.953c2.95-.668 6.023 1.188 6.849 4.139l119.774 427.592c.411 1.468.219 2.977-.54 4.25a5.238 5.238 0 0 1-3.381 2.44l-81.322 18.428-.005.001-467.19 105.871-.007.001-73.484 16.652a5.457 5.457 0 0 1-1.219.137zm500.746-578.536.221.975L24.608 278.238a3.258 3.258 0 0 0-2.107 1.515c-.475.797-.592 1.748-.332 2.678l119.774 427.592c.545 1.945 2.556 3.173 4.483 2.735l72.708-16.476-.175-29.224c-.079-13.087 2.371-25.738 7.283-37.61a73.183 73.183 0 0 1-6.614-15.772c-6.656-23.171-1.273-47.288 14.401-64.513 5.479-6.019 6.75-14.851 3.238-22.501a73.412 73.412 0 0 1-3.999-10.88c-6.508-23.234-.935-47.327 14.909-64.448 5.798-6.262 6.832-15.54 2.634-23.638a71.82 71.82 0 0 1-5.408-13.702c-6.598-23.556-.202-48.465 16.692-65.007 3.626-3.542 5.67-8.475 5.756-13.89.258-17.122 5.112-32.585 14.038-44.716 10.522-14.301 26.43-24.011 47.283-28.86l.568-.131c8.228-1.864 17.312-2.983 27.001-3.327 1.911-.556 3.83-1.058 5.704-1.491l.556-.127c47.358-10.732 74.843 17.868 87.029 35.914.359.414.637.788.871 1.174 2.941 4.752 7.367 8.246 12.461 9.83 23.549 7.359 42.271 26.542 48.859 50.064a69.677 69.677 0 0 1 2.457 14.378c.57 8.94 6.399 16.694 14.85 19.754 21.66 7.854 38.834 25.425 45.993 47.035 7.274 6.374 14.136 16.652 20.401 30.557a.937.937 0 0 1 .147.228c.125.279.274.464.469.583.271.164.582.218.877.151a.991.991 0 0 0 .646-.462l39.818-68.24c1.207-2.069 3.318-3.577 5.791-4.137 2.454-.556 5.081-.135 7.205 1.154 4.574 2.77 6.195 8.615 3.612 13.028l-27.302 46.793c-.301.51-.083 1.221.473 1.559.271.163.584.217.88.15a.995.995 0 0 0 .644-.462l31.48-53.942c1.249-2.147 3.299-3.638 5.771-4.199 2.453-.555 5.021-.125 7.232 1.214 4.559 2.776 6.18 8.619 3.615 13.026l-31.484 53.947c-.301.51-.083 1.221.472 1.558.273.164.589.219.884.152a.972.972 0 0 0 .636-.459l27.311-46.797c1.202-2.059 3.313-3.562 5.792-4.124 2.46-.557 5.086-.141 7.204 1.141 4.567 2.781 6.189 8.628 3.616 13.035l-31.486 53.938c-.302.518-.09 1.217.472 1.558.275.167.588.222.881.156a.981.981 0 0 0 .64-.463l21.052-36.072c1.223-2.071 3.327-3.559 5.792-4.118 2.461-.557 5.086-.144 7.202 1.134 4.565 2.78 6.188 8.629 3.62 13.042l-29.402 50.357c-3.742 6.412-7.695 12.059-11.756 16.795l29.174 63.677 80.535-18.25a3.257 3.257 0 0 0 2.105-1.513c.476-.798.593-1.752.332-2.687l-119.773-427.59c-.544-1.941-2.554-3.165-4.481-2.728zM383.03 256.112c-6.1 0-12.62.705-19.585 2.284l-.547.125c-1.877.434-3.799.938-5.714 1.497a1.02 1.02 0 0 1-.246.04c-9.611.334-18.613 1.438-26.754 3.283l-.555.128c-51.25 11.918-59.45 50.012-59.776 71.659-.095 5.947-2.352 11.376-6.358 15.289-16.372 16.03-22.566 40.185-16.165 63.038a69.76 69.76 0 0 0 5.258 13.32c4.591 8.857 3.436 19.03-2.942 25.918-15.368 16.607-20.77 39.99-14.451 62.55a71.515 71.515 0 0 0 3.891 10.584c3.848 8.381 2.444 18.07-3.577 24.683-15.203 16.708-20.422 40.115-13.958 62.615a71.22 71.22 0 0 0 6.671 15.759c.155.27.175.597.055.885-4.934 11.753-7.395 24.295-7.316 37.279l.173 28.784 464.777-105.323-29.267-63.88a.999.999 0 0 1 .155-1.073c4.127-4.74 8.151-10.453 11.96-16.979l29.402-50.356c2.023-3.478.709-8.11-2.929-10.325-1.675-1.012-3.762-1.337-5.724-.894-1.93.438-3.568 1.586-4.492 3.15l-21.066 36.097a2.965 2.965 0 0 1-1.925 1.406 3.18 3.18 0 0 1-2.361-.397c-1.489-.904-2.01-2.822-1.162-4.276l31.486-53.939c2.027-3.472.714-8.101-2.927-10.317-1.677-1.015-3.764-1.344-5.724-.9-1.94.44-3.583 1.599-4.506 3.181l-27.311 46.796a2.957 2.957 0 0 1-1.922 1.402 3.189 3.189 0 0 1-2.36-.391c-1.5-.911-2.02-2.831-1.163-4.283l31.481-53.942c2.02-3.472.709-8.098-2.925-10.31-1.763-1.068-3.807-1.414-5.752-.973-1.924.436-3.517 1.592-4.485 3.255l-31.484 53.948a2.98 2.98 0 0 1-1.926 1.399 3.19 3.19 0 0 1-2.356-.388c-1.501-.911-2.021-2.832-1.163-4.283l27.3-46.79c2.035-3.477.724-8.101-2.922-10.309-1.686-1.024-3.773-1.357-5.726-.914-1.935.438-3.577 1.603-4.506 3.194l-39.821 68.244a2.977 2.977 0 0 1-1.93 1.401 3.171 3.171 0 0 1-2.357-.392 3.113 3.113 0 0 1-1.127-1.211.926.926 0 0 1-.169-.253c-6.234-13.892-13.031-24.08-20.201-30.283a1 1 0 0 1-.296-.446c-6.917-21.15-23.687-38.361-44.86-46.04-9.198-3.331-15.543-11.773-16.164-21.508a67.661 67.661 0 0 0-2.387-13.965c-6.408-22.877-24.62-41.535-47.529-48.694-5.552-1.727-10.372-5.525-13.571-10.694a6.768 6.768 0 0 0-.712-.949.918.918 0 0 1-.077-.1c-10.095-14.964-30.983-37.416-65.38-37.416z" fill="#111"/><path d="m786.382 636.059-622.01 140.953c-2.442.553-3.866 2.992-3.181 5.437l7.416 26.477c.687 2.453 3.225 3.994 5.667 3.441l622.01-140.953c2.442-.553 3.865-2.992 3.178-5.445l-7.416-26.477c-.684-2.446-3.222-3.987-5.664-3.433" fill="#fff"/><path d="M173.278 813.478c-2.535 0-4.919-1.734-5.633-4.282l-7.416-26.477c-.41-1.463-.218-2.969.54-4.241a5.245 5.245 0 0 1 3.383-2.442l622.01-140.953c2.95-.668 6.023 1.188 6.849 4.138l7.416 26.477c.411 1.468.22 2.977-.539 4.25a5.238 5.238 0 0 1-3.381 2.44l-622.01 140.953a5.45 5.45 0 0 1-1.219.137zm614.117-176.533c-.263 0-.528.029-.792.089l-622.01 140.953a3.258 3.258 0 0 0-2.107 1.515c-.475.796-.592 1.747-.332 2.677l7.416 26.477c.545 1.945 2.556 3.175 4.484 2.735l622.009-140.953a3.26 3.26 0 0 0 2.105-1.513c.476-.798.593-1.752.331-2.687l-7.416-26.477c-.468-1.675-2.03-2.816-3.688-2.816zm-1.013-.886h.01z" fill="#111"/><path d="m522.966 764.507-340.484 77.157c-2.442.553-3.865 2.992-3.178 5.446l7.416 26.476c.687 2.453 3.223 3.987 5.665 3.433l340.484-77.157c2.442-.553 3.867-2.985 3.18-5.438l-7.416-26.476c-.687-2.453-3.225-3.995-5.667-3.441" fill="#fff"/><path d="M191.387 878.131c-2.534 0-4.917-1.731-5.629-4.275l-7.416-26.476c-.411-1.468-.22-2.978.539-4.251a5.238 5.238 0 0 1 3.381-2.44l340.484-77.157c2.95-.668 6.024 1.192 6.851 4.147l7.416 26.476c.41 1.465.219 2.971-.538 4.242a5.246 5.246 0 0 1-3.385 2.441l-340.484 77.157a5.562 5.562 0 0 1-1.219.136zm331.8-112.649-340.484 77.157a3.26 3.26 0 0 0-2.105 1.513c-.476.798-.593 1.753-.331 2.688l7.416 26.476c.544 1.941 2.554 3.165 4.481 2.728l340.484-77.157a3.265 3.265 0 0 0 2.109-1.514c.474-.795.591-1.746.33-2.678l-7.416-26.476c-.545-1.946-2.557-3.176-4.484-2.737zm-.221-.975h.01z" fill="#111"/><path d="m901.656 78.465-163.855 37.131c-2.442.553-3.865 2.992-3.18 5.438l30.982 110.604c.687 2.453 3.225 3.994 5.667 3.441l163.855-37.131c2.434-.552 3.857-2.991 3.17-5.444L907.313 81.9c-.685-2.446-3.223-3.986-5.657-3.435" fill="#b0c3ff"/><path d="M770.273 236.191c-2.535 0-4.919-1.734-5.633-4.283l-30.982-110.604c-.41-1.463-.218-2.969.54-4.241a5.243 5.243 0 0 1 3.382-2.442L901.435 77.49c2.945-.667 6.015 1.19 6.841 4.141l30.982 110.604c.411 1.468.22 2.979-.54 4.253a5.228 5.228 0 0 1-3.372 2.436l-163.855 37.131a5.566 5.566 0 0 1-1.218.136zM902.666 79.353a3.6 3.6 0 0 0-.789.088l-163.855 37.131a3.256 3.256 0 0 0-2.106 1.515c-.475.797-.593 1.748-.332 2.678l30.982 110.604c.545 1.945 2.556 3.172 4.483 2.736l163.855-37.131a3.245 3.245 0 0 0 2.096-1.509c.476-.799.594-1.754.332-2.689L906.35 82.17c-.469-1.676-2.029-2.817-3.684-2.817zm-1.01-.888h.01z" fill="#111"/><path d="M971.839 329.019 807.984 366.15c-2.442.553-3.868 2.984-3.18 5.438l30.982 110.604c.687 2.453 3.225 3.994 5.667 3.441l163.855-37.131c2.434-.552 3.857-2.991 3.17-5.444l-30.982-110.604c-.687-2.454-3.223-3.987-5.657-3.435" fill="#b0c3ff"/><path d="M840.456 486.744c-2.535 0-4.919-1.734-5.633-4.283l-30.982-110.604c-.41-1.465-.219-2.971.538-4.242a5.246 5.246 0 0 1 3.385-2.441l163.855-37.131c2.945-.668 6.015 1.19 6.841 4.141l30.982 110.604c.411 1.468.22 2.979-.54 4.253a5.228 5.228 0 0 1-3.372 2.436l-163.855 37.131a5.522 5.522 0 0 1-1.219.136zm131.604-156.75-163.855 37.131a3.265 3.265 0 0 0-2.109 1.514c-.474.795-.591 1.746-.33 2.678l30.982 110.604c.545 1.945 2.556 3.171 4.483 2.736l163.855-37.131a3.245 3.245 0 0 0 2.096-1.509c.476-.799.594-1.754.332-2.689l-30.982-110.604c-.542-1.941-2.548-3.165-4.472-2.73z" fill="#111"/><path d="m1042.022 579.573-163.855 37.131c-2.442.553-3.868 2.984-3.18 5.438l30.982 110.604c.687 2.453 3.225 3.994 5.667 3.441l163.855-37.131c2.434-.552 3.857-2.991 3.17-5.444l-30.982-110.604c-.687-2.454-3.223-3.987-5.657-3.435" fill="#b0c3ff"/><path d="M910.639 737.298c-2.535 0-4.919-1.734-5.633-4.282l-30.982-110.604c-.41-1.465-.219-2.971.538-4.242a5.246 5.246 0 0 1 3.385-2.441l163.855-37.131c2.945-.669 6.015 1.19 6.841 4.141l30.982 110.604c.411 1.468.22 2.979-.54 4.253a5.228 5.228 0 0 1-3.372 2.436l-163.855 37.131a5.58 5.58 0 0 1-1.219.135zm131.604-156.75-163.855 37.131a3.265 3.265 0 0 0-2.109 1.514c-.474.795-.591 1.746-.33 2.678l30.982 110.604c.545 1.945 2.556 3.174 4.483 2.735l163.855-37.131a3.245 3.245 0 0 0 2.096-1.509c.476-.799.594-1.754.332-2.689l-30.982-110.604c-.542-1.94-2.548-3.164-4.472-2.729z" fill="#111"/><path d="m329.962 262.365-.563.129c-44.285 10.299-60.077 41.439-60.548 72.618-.088 5.544-2.171 10.793-6.056 14.588-16.138 15.802-23.196 39.864-16.429 64.023a70.662 70.662 0 0 0 5.333 13.512c4.325 8.343 3.317 18.184-2.788 24.777-15.007 16.217-21.315 39.812-14.68 63.499a72.289 72.289 0 0 0 3.945 10.732c3.711 8.083 2.324 17.296-3.408 23.592-14.838 16.306-20.976 39.905-14.18 63.564a72.108 72.108 0 0 0 6.765 15.98c8.766-20.885 24.913-38.115 46.213-48.128l48.247-22.67 36.949-17.373-12.597-60.808c-14.247-8.719-26.323-21.698-36.04-37.178-.726 1.635-1.796 2.829-3.22 3.483a5.315 5.315 0 0 1-1.141.395l-.036.008c-6.649 1.507-17.277-7.859-24.455-21.876-7.617-14.872-8.507-29.374-1.964-32.412a5.58 5.58 0 0 1 1.12-.381l.031-.008c1.502-.34 3.208-.124 5.034.576.272.397.544.795.824 1.19 1.354 1.968 7.083 9.92 11.37 8.948l.018-.004.022-.014c1.998-.597-7.579-21.892 2.551-34.081 19.245-23.135 71.165-37.824 76.438-74.026 14.337 22.554 38.088 25.263 60.867 38.875 15.231 9.076 19.84 32.083 22.782 31.442l.006-.01.01.006c5.79-1.406 7.459-11.966 7.596-16.008l.011-.113a6.386 6.386 0 0 1 1.954-.817l.098-.023a5.865 5.865 0 0 1 1.084-.135c7.318-.179 14.165 12.938 15.3 29.314 1.082 15.461-3.307 28.329-9.954 29.877-.398.09-.799.139-1.211.147-1.594.047-3.181-.545-4.68-1.667-.388 18.488-4.428 35.713-12.938 49.88a2.685 2.685 0 0 1-.043.071l20.61 57.982 43.057-.459 54.43-.597.164-.001c-1.474-3.245-2.297-6.221-3.033-8.885l-.278-.991c-.636-2.27-1.31-6.851-2.088-12.165-2.281-15.572-5.423-36.906-13.013-46.124-4.749-5.749-6.557-8.28-3.716-13.147.612-1.057 1.993-2.168 4.136-2.654 1.03-.233 2.237-.322 3.619-.192 2.622.244 7.339 1.492 13.173 6.538-7.265-22.215-24.644-39.117-45.469-46.669-8.85-3.205-14.921-11.441-15.508-20.632a68.573 68.573 0 0 0-2.421-14.171c-6.767-24.159-25.665-42.339-48.194-49.379-5.421-1.687-10.02-5.421-13.018-10.266a7.71 7.71 0 0 0-.811-1.082c-16.853-24.989-45.257-44.785-86.013-35.549l-.552.126c-1.891.437-3.822.943-5.769 1.512-9.956.35-18.913 1.492-26.943 3.311" fill="#b0c3ff"/><path d="M227.353 630.38a.999.999 0 0 1-.867-.502 73.184 73.184 0 0 1-6.858-16.202c-6.656-23.171-1.272-47.288 14.402-64.513 5.479-6.019 6.75-14.852 3.238-22.501a73.525 73.525 0 0 1-3.999-10.88c-6.508-23.234-.935-47.327 14.909-64.448 5.798-6.262 6.832-15.54 2.634-23.638a71.82 71.82 0 0 1-5.408-13.702c-6.598-23.556-.202-48.465 16.692-65.007 3.626-3.542 5.67-8.475 5.756-13.89.258-17.122 5.113-32.585 14.038-44.716 10.522-14.301 26.43-24.011 47.283-28.86l.568-.131c8.228-1.864 17.312-2.983 27.002-3.327 1.911-.556 3.83-1.058 5.704-1.491l.556-.127c47.358-10.732 74.842 17.867 87.028 35.913.36.414.637.789.872 1.174 2.941 4.752 7.368 8.246 12.461 9.83 23.549 7.359 42.271 26.542 48.86 50.064a69.677 69.677 0 0 1 2.457 14.378c.57 8.94 6.399 16.694 14.85 19.754 21.747 7.886 38.973 25.568 46.079 47.298a1 1 0 0 1-1.605 1.068c-5.776-4.997-10.381-6.091-12.611-6.299-1.194-.113-2.305-.055-3.306.171-2.381.539-3.274 1.805-3.491 2.18-2.489 4.264-1.111 6.28 3.622 12.009 7.789 9.46 10.935 30.935 13.231 46.616.738 5.043 1.436 9.806 2.061 12.04l.277.991c.72 2.608 1.536 5.56 2.981 8.741a.999.999 0 0 1-.901 1.413l-.161-.931-.011.005.01.927-97.487 1.056a.99.99 0 0 1-.953-.665l-20.61-57.982a1 1 0 0 1 .085-.85c8.128-13.531 12.433-30.147 12.838-49.456a1 1 0 0 1 1.6-.78c1.354 1.013 2.717 1.504 4.051 1.468a4.993 4.993 0 0 0 1.019-.122c6.175-1.439 10.209-14.104 9.178-28.832-1.078-15.549-7.61-28.547-14.278-28.384a4.8 4.8 0 0 0-.887.11l-.099.023a5.145 5.145 0 0 0-1.211.445c-.155 2.383-1.302 14.782-8.334 16.489l-.02.005-.019.004c-1.818.4-2.957-2.077-5.224-7.004-3.241-7.041-8.666-18.826-18.282-24.556-7.258-4.337-14.64-7.57-21.78-10.697-14.482-6.342-28.198-12.35-38.024-26.407-4.556 22.009-25.755 35.667-46.281 48.893-11.846 7.633-23.035 14.842-29.939 23.143-6.878 8.276-4.201 21.242-2.763 28.207.823 3.987 1.174 5.686-.182 6.164a.982.982 0 0 1-.183.061c-4.678 1.056-10.247-6.189-12.425-9.354a74.92 74.92 0 0 1-.645-.93c-1.564-.557-2.965-.701-4.168-.428a4.65 4.65 0 0 0-.952.321c-1.37.636-2.392 1.909-3.037 3.781-2.073 6.026.074 16.729 5.471 27.267 6.855 13.388 17.109 22.767 23.344 21.356.372-.084.676-.189.964-.328 1.184-.544 2.1-1.547 2.741-2.989a1.001 1.001 0 0 1 1.761-.126c10.146 16.161 22.162 28.561 35.715 36.856.236.144.401.38.457.65l12.598 60.808a1 1 0 0 1-.554 1.108l-85.196 40.043c-20.672 9.718-36.908 26.626-45.716 47.609a.999.999 0 0 1-.861.611.377.377 0 0 1-.065.005zm102.83-367.039-.555.128c-51.25 11.918-59.45 50.012-59.776 71.659-.095 5.947-2.352 11.376-6.358 15.289-16.372 16.03-22.566 40.185-16.165 63.038a69.76 69.76 0 0 0 5.258 13.32c4.591 8.857 3.436 19.03-2.942 25.918-15.368 16.607-20.771 39.99-14.451 62.55a71.515 71.515 0 0 0 3.891 10.584c3.848 8.381 2.444 18.07-3.576 24.683-15.203 16.708-20.422 40.115-13.958 62.615a71.221 71.221 0 0 0 5.692 13.995c9.165-20.573 25.396-37.133 45.898-46.771l84.482-39.708-12.35-59.613c-13.268-8.208-25.066-20.263-35.094-35.852-.761 1.099-1.717 1.917-2.857 2.441a6.192 6.192 0 0 1-1.337.461c-7.239 1.643-18.229-7.988-25.603-22.387-5.633-10.998-7.824-22.314-5.582-28.829.828-2.406 2.203-4.07 4.087-4.945a6.587 6.587 0 0 1 1.32-.449c1.7-.386 3.589-.178 5.644.61.189.073.352.201.467.368.284.415.546.797.815 1.178 2.84 4.127 7.03 8.689 9.879 8.607-.036-.772-.379-2.434-.688-3.929-1.506-7.295-4.31-20.873 3.184-29.89 7.101-8.537 18.415-15.827 30.394-23.545 20.911-13.474 42.535-27.407 45.823-49.986a1 1 0 0 1 1.833-.393c9.572 15.058 23.64 21.219 38.534 27.741 7.196 3.151 14.637 6.41 22.002 10.811 10.149 6.047 15.736 18.186 19.074 25.438 1.156 2.51 2.459 5.343 3.123 5.849 5.085-1.42 6.567-11.557 6.684-15.031l.015-.174a.999.999 0 0 1 .468-.754 7.377 7.377 0 0 1 2.26-.942l.101-.024a6.8 6.8 0 0 1 1.265-.158c7.977-.215 15.145 13.089 16.335 30.244 1.116 15.942-3.495 29.235-10.725 30.92a6.907 6.907 0 0 1-1.418.172c-1.257.038-2.513-.262-3.747-.892-.626 18.76-4.94 34.994-12.832 48.284l20.213 56.865 95.432-1.034c-1.142-2.781-1.849-5.339-2.483-7.634l-.277-.987c-.66-2.357-1.334-6.96-2.114-12.29-2.263-15.448-5.362-36.604-12.795-45.633-4.807-5.819-6.977-8.857-3.808-14.287.865-1.493 2.607-2.633 4.779-3.125 1.207-.274 2.531-.344 3.935-.212 2.529.236 6.338 1.262 10.977 4.595-7.511-19.657-23.63-35.509-43.708-42.79-9.198-3.331-15.543-11.773-16.165-21.508a67.726 67.726 0 0 0-2.386-13.965c-6.408-22.877-24.62-41.535-47.529-48.694-5.552-1.727-10.372-5.525-13.57-10.694a6.768 6.768 0 0 0-.712-.949.918.918 0 0 1-.077-.1c-11.882-17.619-38.72-45.612-84.963-35.133l-.547.125c-1.877.434-3.799.938-5.714 1.497a.979.979 0 0 1-.246.039c-9.613.333-18.614 1.438-26.756 3.283zm-32.744 138.831-.047.016.047-.016zm32.523-139.807h.01z" fill="#111"/><path d="m521.264 513.384 2.897 10.341c11.766 42.004-12.578 83.718-54.387 93.192l-48.085 10.896c-11.874 2.691-23.874 2.49-35.246-.14l-.604-.142-.008-.002c-28.404-6.795-52.757-28.748-61.121-58.608l-2.897-10.341-48.247 22.67c-21.3 10.013-37.446 27.243-46.213 48.128-4.881 11.629-7.475 24.391-7.395 37.672l.18 30.028 463.62-105.06-82.52 18.7-12.938-82.066c-6.727-5.78-10.284-11.113-12.444-15.867l-.164.001z" fill="#3658c1"/><path d="M220.139 698.08a1 1 0 0 1-1-.994l-.18-30.028c-.08-13.255 2.434-26.062 7.472-38.065 9-21.441 25.588-38.717 46.709-48.646l48.247-22.67a1 1 0 0 1 1.388.635l2.897 10.341c8.048 28.731 31.188 50.919 60.391 57.905l.604.142c11.63 2.689 23.338 2.736 34.8.139l48.085-10.896c19.703-4.465 36.148-16.312 46.307-33.359 10.418-17.482 13.024-38.289 7.338-58.588l-2.897-10.341a.999.999 0 0 1 .952-1.27l54.539-.598c.397-.025.813.228.976.586 2.533 5.577 6.519 10.654 12.185 15.522a1 1 0 0 1 .336.603l12.771 81.01 81.478-18.464a1 1 0 0 1 .442 1.95L220.36 698.055a.973.973 0 0 1-.221.025zm101.029-138.091-47.177 22.168c-20.672 9.718-36.908 26.626-45.716 47.609-4.934 11.753-7.395 24.296-7.317 37.279l.173 28.784 378.974-85.879-12.735-80.78c-5.546-4.818-9.528-9.857-12.148-15.378l-52.644.577 2.545 9.086c5.835 20.832 3.155 42.194-7.546 60.151-10.442 17.522-27.341 29.698-47.583 34.286l-48.085 10.896c-11.757 2.665-23.766 2.617-35.692-.141l-.611-.143c-29.915-7.157-53.615-29.883-61.859-59.313zm254.525-47.202.001.073.011-.005z" fill="#111"/><path d="M386.442 627.674c11.372 2.63 23.372 2.831 35.246.14l48.085-10.896-48.077 10.895c-11.876 2.69-23.881 2.49-35.254-.139m-.611-.143a.03.03 0 0 1 .008.002l-.008-.002m-39.667-147.13 12.597 60.808-36.949 17.373 16.609-7.809 3.962 14.145c9.001 32.134 42.35 52.377 74.336 45.129l48.077-10.895c31.985-7.248 50.69-39.287 41.689-71.421l-3.962-14.145 18.74-.202-43.057.459-20.61-57.982c-9.867 16.393-25.744 28.678-48.918 34.065l-.548.126c-22.995 5.211-43.245 1.315-60.426-8.729a83.482 83.482 0 0 1-1.54-.922" fill="#fff"/><path d="M404.436 630.753c-6.058 0-12.139-.7-18.198-2.099l-.021-.005a1.003 1.003 0 0 1-.294-.119 1.005 1.005 0 0 1-1.058-1.247.998.998 0 0 1 1.492-.605.99.99 0 0 1 .31.022l.243.056c11.296 2.575 22.663 2.658 33.806.249.251-.054.501-.11.751-.167l48.085-10.896a1 1 0 0 1 .442 1.95l-48.077 10.895-.48.107a78.85 78.85 0 0 1-17.001 1.859zm-.882-18.236c-27.945.002-54.244-19.168-62.132-47.33l-3.643-13.007-15.54 7.306a1 1 0 0 1-.851-1.81l36.235-17.037-12.437-60.036a1 1 0 0 1 1.501-1.056c.505.309 1.013.614 1.523.912 18.115 10.59 38.201 13.489 59.701 8.617l.543-.125c21.647-5.032 37.893-16.339 48.287-33.606a1 1 0 0 1 1.799.181l20.371 57.31 42.343-.452a1 1 0 0 1 .022 2l-17.436.188 3.61 12.889c4.481 15.997 2.408 32.427-5.836 46.261-8.047 13.503-21.043 22.88-36.594 26.405l-48.077 10.895a60.578 60.578 0 0 1-13.389 1.495zm-63.941-61.2 3.734 13.331c8.859 31.628 41.675 51.557 73.152 44.423l48.077-10.895c15.012-3.402 27.555-12.45 35.318-25.478 7.961-13.36 9.96-29.234 5.628-44.698l-3.756-13.408-23.549.251a.986.986 0 0 1-.953-.665l-19.914-56.024c-10.713 16.749-27 27.761-48.445 32.746l-.553.127c-21.852 4.952-42.287 2.057-60.749-8.606l12.137 58.585a1 1 0 0 1-.554 1.108z" fill="#111"/><path d="M376.714 295.023c-5.273 36.202-57.193 50.891-76.438 74.026-10.13 12.188-.552 33.484-2.551 34.081l-.022.014-.018.004c-4.287.971-10.016-6.98-11.37-8.948-.28-.395-.552-.793-.824-1.19-1.826-.7-3.533-.917-5.034-.576l-.031.008c-.39.088-.76.215-1.12.381-6.543 3.038-5.653 17.539 1.964 32.412 7.177 14.017 17.806 23.383 24.455 21.876l.036-.008c.398-.09.776-.218 1.141-.395 1.424-.654 2.494-1.848 3.22-3.483 9.718 15.479 21.794 28.458 36.04 37.178.511.313 1.025.621 1.541.922 17.181 10.044 37.431 13.94 60.426 8.729l.548-.126c23.173-5.387 39.051-17.672 48.918-34.065l.043-.071c8.509-14.167 12.55-31.392 12.938-49.88 1.499 1.122 3.086 1.714 4.68 1.667a5.986 5.986 0 0 0 1.211-.147c6.647-1.549 11.036-14.417 9.954-29.877-1.135-16.375-7.982-29.493-15.3-29.314a5.865 5.865 0 0 0-1.182.158 6.361 6.361 0 0 0-1.954.817l-.011.113c-.137 4.042-1.806 14.603-7.596 16.008l-.01-.006-.006.01c-2.942.641-7.551-22.366-22.782-31.442-22.778-13.613-46.529-16.322-60.866-38.876" fill="#fff"/><path d="M388.078 493.374c-14.448 0-28.136-3.738-40.878-11.187a85.534 85.534 0 0 1-1.559-.933c-13.418-8.212-25.343-20.346-35.463-36.08-.761 1.099-1.717 1.917-2.857 2.441a6.192 6.192 0 0 1-1.337.461c-7.239 1.643-18.229-7.988-25.603-22.387-5.633-10.998-7.824-22.314-5.582-28.829.828-2.406 2.203-4.07 4.087-4.945a6.587 6.587 0 0 1 1.32-.449c1.7-.385 3.589-.178 5.644.61.189.073.352.201.467.368.284.415.546.797.815 1.178 2.84 4.127 7.03 8.684 9.879 8.607-.036-.772-.379-2.434-.688-3.929-1.506-7.295-4.31-20.873 3.184-29.89 7.101-8.537 18.415-15.827 30.394-23.545 20.911-13.474 42.535-27.407 45.823-49.986a1 1 0 0 1 1.833-.393c9.572 15.058 23.64 21.219 38.534 27.741 7.196 3.151 14.637 6.41 22.002 10.811 10.149 6.047 15.736 18.185 19.074 25.438 1.156 2.51 2.459 5.343 3.123 5.849 5.085-1.42 6.567-11.557 6.684-15.031l.015-.174a.999.999 0 0 1 .468-.754 7.377 7.377 0 0 1 2.26-.942l.101-.024a6.8 6.8 0 0 1 1.265-.158c7.968-.215 15.145 13.089 16.335 30.244 1.116 15.942-3.495 29.235-10.725 30.92a6.907 6.907 0 0 1-1.418.172c-1.257.038-2.513-.262-3.747-.892-.631 18.918-5.012 35.267-13.032 48.619-10.727 17.82-27.397 29.435-49.591 34.594l-.553.127c-6.905 1.566-13.669 2.348-20.274 2.348zm-77.954-51.151c.342 0 .663.176.847.468 10.146 16.161 22.162 28.561 35.715 36.856.505.309 1.013.614 1.523.912 18.115 10.59 38.201 13.49 59.701 8.617l.543-.125c21.647-5.032 37.893-16.339 48.287-33.606 8.128-13.531 12.432-30.146 12.837-49.456a1 1 0 0 1 1.6-.78c1.354 1.013 2.716 1.513 4.051 1.468a4.993 4.993 0 0 0 1.019-.122c6.175-1.439 10.209-14.104 9.178-28.832-1.078-15.549-7.633-28.56-14.278-28.384a4.8 4.8 0 0 0-.887.11l-.099.023a5.145 5.145 0 0 0-1.211.445c-.154 2.383-1.302 14.782-8.334 16.489l-.021.005-.018.004c-1.818.4-2.957-2.077-5.224-7.004-3.241-7.041-8.666-18.826-18.282-24.556-7.258-4.337-14.64-7.57-21.78-10.697-14.482-6.342-28.198-12.35-38.024-26.407-4.556 22.009-25.755 35.667-46.281 48.893-11.846 7.633-23.035 14.842-29.939 23.143-6.878 8.276-4.201 21.242-2.763 28.207.823 3.987 1.174 5.686-.182 6.164a.982.982 0 0 1-.183.061c-4.678 1.056-10.247-6.189-12.425-9.354a74.92 74.92 0 0 1-.645-.93c-1.564-.557-2.965-.701-4.168-.428a4.65 4.65 0 0 0-.952.321c-1.37.636-2.392 1.909-3.037 3.781-2.073 6.026.074 16.729 5.471 27.267 6.855 13.388 17.109 22.767 23.344 21.356.372-.084.676-.189.964-.328 1.184-.544 2.1-1.547 2.741-2.989.15-.338.474-.565.843-.592h.069zm-12.687-40.05c-.015.004-.03.01-.044.015a.38.38 0 0 1 .044-.015z" fill="#111"/><path d="M643.892 394.249c-2.124.481-4.034 1.756-5.149 3.665l-39.821 68.244c-.29.491-.761.81-1.287.929s-1.107.038-1.617-.271c-.418-.253-.683-.627-.863-1.028l-.04.009c-7.29-16.246-14.464-25.444-20.459-30.63-5.834-5.046-10.551-6.294-13.173-6.538-1.382-.131-2.589-.042-3.619.192-2.143.486-3.524 1.597-4.136 2.654-2.841 4.867-1.032 7.398 3.716 13.147 7.59 9.218 10.732 30.552 13.013 46.124.778 5.314 1.452 9.895 2.088 12.165l.278.991c.736 2.664 1.559 5.64 3.033 8.885 2.16 4.755 5.716 10.087 12.444 15.867l12.938 82.066 82.52-18.7 3.572-.809-29.78-65c4.167-4.786 8.2-10.501 12.069-17.132l29.402-50.356c2.295-3.945.827-9.188-3.273-11.684-1.991-1.202-4.337-1.497-6.465-1.015-2.116.48-4.016 1.728-5.132 3.617l-.017.03-10.317 17.678-10.734 18.394c-.289.495-.757.815-1.282.934s-1.107.036-1.621-.276c-1.03-.625-1.394-1.928-.817-2.917l10.729-18.384.006-.01 10.317-17.679.017-.029 10.417-17.837c2.309-3.957.829-9.18-3.271-11.676-1.992-1.206-4.338-1.503-6.465-1.021s-4.034 1.743-5.149 3.653l-12.366 21.177-14.945 25.62a1.968 1.968 0 0 1-1.279.93 2.21 2.21 0 0 1-1.624-.272c-1.03-.625-1.397-1.936-.817-2.917l14.945-25.62 12.366-21.177 4.173-7.15c2.296-3.945.832-9.172-3.268-11.668-2.054-1.244-4.387-1.571-6.493-1.094-2.104.477-3.981 1.756-5.128 3.728l-16.382 28.07-15.101 25.877c-.29.49-.759.809-1.284.928s-1.106.038-1.62-.27c-1.029-.625-1.397-1.936-.817-2.917l15.102-25.876 12.201-20.919c2.312-3.949.858-9.169-3.268-11.668-1.989-1.207-4.335-1.517-6.467-1.034" fill="#fff"/><path d="M601.239 611.719a1.002 1.002 0 0 1-.988-.844l-12.881-81.704c-5.744-4.989-9.81-10.217-12.424-15.971-1.51-3.324-2.348-6.357-3.087-9.032l-.277-.987c-.66-2.357-1.334-6.96-2.114-12.29-2.263-15.448-5.362-36.604-12.795-45.633-4.807-5.819-6.977-8.857-3.808-14.287.865-1.493 2.607-2.633 4.779-3.125 1.207-.273 2.531-.345 3.935-.212 3.014.281 7.845 1.685 13.733 6.778 7.351 6.359 14.285 16.701 20.611 30.739a.905.905 0 0 1 .146.228c.125.279.274.464.469.583.271.165.582.218.877.151a.991.991 0 0 0 .646-.462l39.818-68.24c1.207-2.069 3.318-3.577 5.791-4.137 2.454-.556 5.081-.135 7.205 1.154 4.574 2.77 6.195 8.615 3.612 13.028l-27.302 46.794c-.301.509-.083 1.221.473 1.558.271.163.584.217.88.15a.991.991 0 0 0 .644-.462l31.481-53.942c1.249-2.147 3.299-3.638 5.771-4.199 2.453-.555 5.022-.125 7.232 1.214 4.559 2.776 6.179 8.619 3.615 13.026l-31.484 53.947c-.301.509-.083 1.221.472 1.558.273.164.589.219.884.152a.972.972 0 0 0 .636-.459l27.311-46.797c1.202-2.059 3.313-3.562 5.792-4.124 2.46-.557 5.086-.141 7.204 1.141 4.567 2.781 6.189 8.627 3.616 13.035l-31.486 53.938c-.302.518-.09 1.217.472 1.558.275.167.588.222.881.156a.981.981 0 0 0 .64-.463l21.052-36.072c1.223-2.071 3.327-3.559 5.792-4.118 2.461-.558 5.086-.144 7.202 1.134 4.565 2.779 6.188 8.629 3.62 13.042l-29.402 50.357c-3.742 6.412-7.695 12.059-11.756 16.796l29.512 64.415a1 1 0 0 1-.688 1.392l-86.091 19.509a.874.874 0 0 1-.221.027zm-41.007-182.15a9.68 9.68 0 0 0-2.146.228c-2.381.539-3.274 1.805-3.492 2.18-2.489 4.264-1.11 6.28 3.622 12.009 7.789 9.46 10.935 30.935 13.231 46.616.738 5.043 1.436 9.806 2.061 12.04l.278.991c.72 2.608 1.536 5.56 2.981 8.741 2.533 5.577 6.519 10.654 12.185 15.522a1 1 0 0 1 .336.603l12.771 81.01 83.848-19.001-29.267-63.88a.999.999 0 0 1 .155-1.073c4.127-4.74 8.151-10.453 11.96-16.979l29.402-50.356c2.023-3.478.71-8.11-2.929-10.325-1.675-1.012-3.762-1.337-5.724-.894-1.93.438-3.568 1.586-4.492 3.15l-21.066 36.097a2.96 2.96 0 0 1-1.925 1.405 3.18 3.18 0 0 1-2.361-.397c-1.489-.904-2.01-2.822-1.162-4.276l31.486-53.939c2.027-3.472.714-8.101-2.927-10.317-1.677-1.016-3.764-1.344-5.724-.9-1.94.44-3.583 1.599-4.506 3.181l-27.311 46.796a2.957 2.957 0 0 1-1.922 1.402 3.198 3.198 0 0 1-2.36-.391c-1.5-.911-2.02-2.831-1.163-4.283l31.481-53.942c2.02-3.472.709-8.098-2.925-10.31-1.763-1.068-3.807-1.414-5.752-.973-1.924.436-3.517 1.592-4.485 3.255l-31.484 53.948a2.977 2.977 0 0 1-1.926 1.399 3.19 3.19 0 0 1-2.356-.388c-1.501-.912-2.021-2.832-1.163-4.283l27.3-46.79c2.035-3.477.724-8.101-2.922-10.309-1.686-1.023-3.773-1.356-5.726-.914-1.935.438-3.577 1.603-4.506 3.194l-39.821 68.244a2.977 2.977 0 0 1-1.93 1.401 3.171 3.171 0 0 1-2.357-.392 3.113 3.113 0 0 1-1.127-1.211.926.926 0 0 1-.169-.253c-6.234-13.892-13.031-24.08-20.201-30.283-5.776-4.997-10.381-6.091-12.611-6.299a13.154 13.154 0 0 0-1.159-.054zm83.66-35.32h.01z" fill="#111"/><path d="m502.523 513.586 3.962 14.145c9.001 32.134-9.704 64.173-41.689 71.421l-48.077 10.895c-31.985 7.248-65.334-12.995-74.336-45.129l-3.962-14.145-16.609 7.809 2.897 10.341c8.364 29.86 32.717 51.813 61.121 58.608a.03.03 0 0 1 .008.002l.604.142c11.373 2.629 23.378 2.829 35.254.138l48.077-10.895c41.809-9.474 66.153-51.188 54.387-93.192l-2.897-10.341z" fill="#b0c3ff"/><path d="M404.436 630.752c-6.066 0-12.152-.701-18.219-2.103l-.612-.143c-29.915-7.157-53.616-29.883-61.859-59.313l-2.897-10.341c-.132-.47.096-.967.537-1.175l16.609-7.809a1 1 0 0 1 1.389.636l3.962 14.145c8.859 31.628 41.675 51.557 73.152 44.423l48.077-10.895c15.012-3.402 27.555-12.45 35.318-25.478 7.961-13.36 9.96-29.234 5.628-44.698l-3.962-14.145a.999.999 0 0 1 .952-1.27l18.74-.202c.451.011.852.295.974.73l2.897 10.341c5.835 20.832 3.155 42.194-7.546 60.151-10.442 17.522-27.341 29.698-47.583 34.286l-48.077 10.895a78.912 78.912 0 0 1-17.48 1.965zm-81.432-71.625 2.668 9.526c8.048 28.731 31.188 50.919 60.391 57.905l.604.142c11.632 2.689 23.343 2.735 34.807.137l48.077-10.895c19.703-4.465 36.148-16.312 46.307-33.359 10.418-17.482 13.024-38.289 7.338-58.588l-2.69-9.603-16.67.179 3.61 12.889c4.481 15.997 2.408 32.427-5.836 46.261-8.047 13.503-21.043 22.88-36.594 26.405l-48.077 10.895a60.547 60.547 0 0 1-13.387 1.495c-27.945.002-54.244-19.168-62.132-47.33l-3.643-13.007z" fill="#111"/><path d="m358.907 889.24-133.691 30.296c-12.838 2.909-20.315 15.72-16.702 28.618l5.321 18.996c3.613 12.898 16.945 20.994 29.784 18.084l133.691-30.296c12.838-2.909 20.323-15.722 16.71-28.62l-5.321-18.996c-3.614-12.898-16.954-20.991-29.792-18.082" fill="#b0c3ff"/><path d="M238.348 986.824c-11.459 0-22.243-7.858-25.477-19.403l-5.321-18.996c-1.844-6.582-.995-13.334 2.39-19.013 3.305-5.546 8.651-9.399 15.054-10.85l133.691-30.296c13.332-3.02 27.228 5.407 30.976 18.788l5.321 18.996c1.843 6.579.994 13.33-2.391 19.01-3.307 5.549-8.656 9.404-15.061 10.856L243.839 986.21a24.79 24.79 0 0 1-5.491.614zm120.559-97.584.221.975-133.691 30.296c-5.863 1.329-10.756 4.853-13.778 9.924-3.101 5.204-3.876 11.401-2.182 17.45l5.321 18.996c3.465 12.372 16.296 20.168 28.6 17.379l133.691-30.296c5.866-1.329 10.761-4.855 13.785-9.929 3.101-5.204 3.877-11.4 2.183-17.446l-5.321-18.996c-3.465-12.371-16.299-20.166-28.608-17.377z" fill="#111"/><path d="m584.472 838.125-133.691 30.296c-12.839 2.909-20.323 15.722-16.71 28.62l5.321 18.996c3.613 12.898 16.953 20.992 29.792 18.083l133.691-30.296c12.839-2.909 20.315-15.72 16.702-28.619l-5.321-18.996c-3.613-12.898-16.945-20.993-29.784-18.084" fill="#b0c3ff"/><path d="M463.91 935.709c-11.461 0-22.248-7.858-25.481-19.402l-5.321-18.996c-1.843-6.579-.994-13.33 2.391-19.009 3.307-5.549 8.656-9.405 15.061-10.856l133.691-30.296c13.328-3.02 27.22 5.409 30.968 18.79l5.321 18.996c1.844 6.582.995 13.334-2.39 19.013-3.305 5.546-8.651 9.399-15.054 10.85l-133.691 30.296c-1.83.415-3.671.614-5.495.614zM584.693 839.1l-133.691 30.296c-5.866 1.329-10.762 4.855-13.785 9.929-3.101 5.204-3.877 11.4-2.183 17.446l5.321 18.996c3.465 12.371 16.299 20.167 28.608 17.377l133.691-30.296c5.863-1.329 10.757-4.853 13.778-9.924 3.101-5.204 3.876-11.401 2.182-17.45l-5.321-18.996c-3.465-12.37-16.295-20.167-28.6-17.378z" fill="#111"/><path d="m810.038 787.01-133.699 30.297c-12.838 2.909-20.315 15.72-16.702 28.619l5.321 18.996c3.613 12.898 16.946 20.994 29.784 18.084l133.699-30.297c12.839-2.909 20.315-15.72 16.702-28.619l-5.321-18.996c-3.613-12.898-16.946-20.994-29.784-18.084" fill="#b0c3ff"/><g fill="#111"><path d="M689.471 884.595c-11.459 0-22.242-7.858-25.477-19.403l-5.321-18.996c-1.844-6.582-.995-13.334 2.39-19.013 3.305-5.546 8.651-9.399 15.054-10.85l133.699-30.298c13.328-3.018 27.22 5.409 30.968 18.79l5.321 18.996c1.844 6.582.995 13.334-2.39 19.013-3.305 5.546-8.651 9.399-15.054 10.85l-133.699 30.297a24.79 24.79 0 0 1-5.491.614zm120.788-96.61L676.56 818.283c-5.863 1.329-10.756 4.853-13.778 9.923-3.101 5.204-3.876 11.401-2.182 17.45l5.321 18.996c3.465 12.371 16.295 20.167 28.6 17.379l133.699-30.297c5.863-1.329 10.757-4.853 13.778-9.924 3.101-5.204 3.876-11.401 2.182-17.45l-5.321-18.996c-3.466-12.371-16.296-20.168-28.6-17.379zM939.123 70.499a1 1 0 0 1-.22-1.975l121.815-27.604a1 1 0 0 1 .442 1.95L939.345 70.474a1.001 1.001 0 0 1-.222.025zm16.35 58.371a1 1 0 0 1-.22-1.975l121.815-27.604a1 1 0 0 1 .442 1.95l-121.815 27.604a.994.994 0 0 1-.222.025zm16.375 58.459a1 1 0 0 1-.22-1.975l76.84-17.413a1 1 0 0 1 .442 1.95l-76.84 17.413a.994.994 0 0 1-.222.025zm37.458 133.724a1 1 0 0 1-.22-1.975l67.097-15.205a1 1 0 1 1 .442 1.95l-67.097 15.205a1.001 1.001 0 0 1-.222.025zm16.35 58.371a1 1 0 0 1-.22-1.975l121.815-27.604a1 1 0 0 1 .442 1.95l-121.815 27.604a1.057 1.057 0 0 1-.222.025zm53.833 192.183a1 1 0 0 1-.22-1.975l121.815-27.604a1 1 0 0 1 .442 1.95l-121.815 27.604a1.001 1.001 0 0 1-.222.025zm16.35 58.37a1 1 0 0 1-.22-1.975l59.001-13.37a1 1 0 0 1 .442 1.95l-59.001 13.37a.994.994 0 0 1-.222.025zm16.373 58.451a1 1 0 0 1-.22-1.975l112.097-25.402a1 1 0 0 1 .442 1.95l-112.097 25.402a.994.994 0 0 1-.222.025z"/></g></svg></g><g transform="translate(2066.4 1620.0) rotate(-6.73288785836168 409.79999999999995 323.39999999999986) scale(1.2965789994067627 1.3002442481078305)"><svg width="632.125" height="497.445" viewBox="0 0 632.125 497.445"><path d="M431.569 26.184c146.063 57.678 220.094 195.957 165.339 308.853-54.754 112.895-217.562 157.663-363.625 99.985-48.723-19.24-89.409-47.45-119.983-80.688L1 357.526l69.467-65.805C44.955 238.306 42.125 179.408 67.95 126.16 122.704 13.264 285.496-31.498 431.569 26.184z" fill="#fff"/><path d="M364.178 461.268c-43.911 0-88.689-8.505-131.262-25.316-47.004-18.561-88.502-46.427-120.043-80.605L1.028 358.525a1 1 0 0 1-.716-1.725l68.939-65.305c-26.327-55.565-27.114-114.406-2.202-165.771 26.609-54.865 79.241-95.522 148.2-114.482 68.884-18.94 145.838-13.964 216.686 14.013 81.115 32.031 143.078 90.03 170.002 159.124 9.774 25.084 14.479 50.623 13.982 75.907-.514 26.171-6.608 51.469-18.112 75.188-26.609 54.864-79.243 95.522-148.207 114.485-27.489 7.559-56.265 11.309-85.422 11.309zM113.3 353.334c.279 0 .546.117.736.323 31.375 34.11 72.738 61.923 119.615 80.434 145.36 57.401 307.912 12.769 362.358-99.49 11.377-23.458 17.404-48.475 17.912-74.355.491-25.021-4.167-50.302-13.846-75.142-26.723-68.577-88.275-126.162-168.874-157.99C360.755-.704 284.249-5.657 215.78 13.17 147.385 31.975 95.203 72.257 68.849 126.596c-24.739 51.007-23.844 109.497 2.52 164.694.187.391.1.859-.214 1.157L3.588 356.452l109.684-3.117.028-.001z" fill="#111"/><path d="m113.299 354.334 16.171 36.243-112.3 3.191L1 357.526z" fill="#3658c1"/><path d="M17.17 394.768a.998.998 0 0 1-.913-.593L.087 357.932a.998.998 0 0 1 .884-1.407l112.3-3.191a.996.996 0 0 1 .941.592l16.17 36.243a.998.998 0 0 1-.884 1.407l-112.299 3.191-.029.001zM2.522 358.483l15.289 34.267 110.137-3.13-15.289-34.267z" fill="#111"/><path d="M279.542 238.852c.149 4.785-2.646 9.346-7.182 11.702-3.547 1.842-7.612 2.038-11.079.669a12.214 12.214 0 0 1-2.736-1.509c-3.847-2.827-5.487-7.67-4.117-12.375l4.732-42.633-55.685-21.989-31.496 32.065c-2.9 4.1-7.956 6.299-12.868 5.667a12.832 12.832 0 0 1-3.085-.79c-3.466-1.369-6.065-4.197-6.973-7.797-1.161-4.605.656-9.552 4.653-12.701L276.867 63.145c3.209-3.509 8.189-5.109 12.803-4.175.598.141 1.173.323 1.724.54 4.963 1.96 7.905 6.872 7.167 12.202zm-57.171-85.54 39.773 15.706 7.29-63.886z" fill="#b0c3ff"/><path d="M266.027 253.118c-1.745 0-3.479-.32-5.114-.966a13.208 13.208 0 0 1-2.96-1.633c-4.183-3.073-5.947-8.315-4.51-13.376l4.639-41.789-54.358-21.465-30.976 31.535c-3.103 4.333-8.5 6.694-13.764 6.015a13.883 13.883 0 0 1-3.325-.851c-3.837-1.515-6.598-4.607-7.575-8.483-1.246-4.941.697-10.308 4.952-13.689l123.116-125.97c3.434-3.755 8.698-5.472 13.716-4.457.665.156 1.291.353 1.893.59 5.46 2.156 8.591 7.489 7.791 13.269l-19.009 167.046c.129 5.122-2.896 10.04-7.723 12.546a14.742 14.742 0 0 1-6.793 1.678zm-62.553-81.402c.124 0 .248.023.367.07l55.685 21.989c.42.166.676.592.627 1.041l-4.732 42.633a1.076 1.076 0 0 1-.034.169c-1.243 4.271.229 8.702 3.75 11.289a11.22 11.22 0 0 0 2.511 1.385c3.264 1.289 7 1.061 10.25-.626 4.172-2.166 6.78-6.399 6.644-10.783a.991.991 0 0 1 .006-.144l19.02-167.14c.674-4.873-1.956-9.348-6.541-11.159a11.533 11.533 0 0 0-1.586-.497c-4.237-.857-8.895.662-11.835 3.877L154.421 189.86a.897.897 0 0 1-.097.087c-3.671 2.892-5.36 7.473-4.301 11.67.818 3.244 3.14 5.836 6.37 7.111a11.89 11.89 0 0 0 2.845.728c4.567.588 9.25-1.474 11.924-5.253a.932.932 0 0 1 .103-.123l31.496-32.065a.998.998 0 0 1 .713-.299zm58.671-1.698a.993.993 0 0 1-.367-.07l-39.773-15.706a1 1 0 0 1-.348-1.629l47.063-48.18a1 1 0 0 1 1.709.812l-7.29 63.886a.998.998 0 0 1-.994.887zm-38.007-17.083 37.161 14.674 6.811-59.69z" fill="#111"/><path d="M444.289 213.588c2.936 1.16 5.263 3.377 6.471 6.241 1.326 3.14 1.17 6.805-.551 10.013l-10.936 22.548 57.853 22.845c4.252 1.679 7.042 5.249 7.459 9.609.365 4.34-1.73 8.659-5.511 11.362-3.797 2.656-8.654 3.247-12.765 1.624l-14.224-5.618c-11.709 13.592-38.825 41.092-82.98 59.174 7.139 13.482 16.537 27.633 29.273 41.795 4.461 5.007 3.615 12.757-1.918 17.298-3.979 3.252-9.288 3.978-13.615 2.269a11.757 11.757 0 0 1-4.497-3.128c-15.158-16.846-25.865-33.834-33.95-49.935-21.47 5.961-45.835 9.457-73.254 8.022-2.077.169-4.086-.137-5.886-.848-2.577-1.018-4.727-2.864-6.037-5.329-2.225-4.186-1.555-9.327 1.666-13.201 3.196-3.822 8.392-5.658 13.282-4.616 22.69 1.185 42.778-1.483 60.583-5.892-11.007-29.164-12.39-49.606-12.463-50.682-.396-4.093 1.441-8.193 4.848-10.883 3.422-2.746 7.922-3.696 12.029-2.606.463.125.912.274 1.347.446 4.269 1.686 7.126 5.567 7.319 10.123.056.972 1.123 19.436 11.641 46.162 34.364-13.667 57.031-34.631 68.749-47.59l-100.879-39.835c-6.441-2.543-10.13-8.776-7.706-15.211 2.429-6.445 10.075-10.719 16.473-8.193.808.319 57.061 22.532 60.021 23.702l10.936-22.548c2.469-5.43 8.567-8.785 14.523-7.852.592.11.958.218 1.599.359.377.108.743.234 1.1.375z" fill="#b0c3ff"/><path d="M407.594 414.634c-1.749 0-3.487-.312-5.114-.955a12.667 12.667 0 0 1-4.878-3.394c-13.392-14.883-24.432-31.057-33.726-49.417a229.603 229.603 0 0 1-72.717 7.842 14.174 14.174 0 0 1-6.267-.92c-2.837-1.12-5.165-3.176-6.553-5.79-2.397-4.51-1.699-10.127 1.779-14.31 3.429-4.101 8.985-6.047 14.181-4.971 19.949 1.034 39.304-.798 59.122-5.601-10.395-27.928-11.981-47.722-12.129-49.911-.428-4.416 1.525-8.814 5.226-11.736 3.641-2.922 8.468-3.965 12.905-2.787.5.135.988.297 1.457.482 4.696 1.855 7.743 6.074 7.951 11.011.112 1.934 1.375 19.57 11.207 44.9 31.694-12.805 53.491-31.778 66.469-45.889l-99.53-39.303c-7.308-2.886-10.788-9.822-8.274-16.494 1.367-3.627 4.37-6.761 8.033-8.385 3.257-1.444 6.718-1.581 9.743-.386l59.159 23.361 10.531-21.714c2.663-5.856 9.216-9.399 15.577-8.404.416.077.711.148 1.041.227.186.045.384.092.62.145.467.134.863.27 1.249.422 3.223 1.273 5.718 3.682 7.025 6.783 1.468 3.474 1.253 7.438-.59 10.874l-10.447 21.542 56.85 22.449c4.612 1.821 7.635 5.726 8.088 10.444.393 4.68-1.877 9.377-5.925 12.271-4.036 2.824-9.288 3.489-13.713 1.741l-13.564-5.357c-12.686 14.606-39.764 40.998-81.87 58.487 7.773 14.485 17.396 28.148 28.615 40.622 2.251 2.528 3.344 5.791 3.078 9.193-.289 3.691-2.102 7.082-5.105 9.546a15.116 15.116 0 0 1-9.504 3.382zm-43.193-55.947a1 1 0 0 1 .894.551c9.29 18.502 20.346 34.763 33.799 49.715a10.696 10.696 0 0 0 4.121 2.866c4.106 1.622 9.059.792 12.615-2.114 2.577-2.115 4.132-5.011 4.378-8.155.223-2.854-.691-5.59-2.574-7.703-11.576-12.872-21.472-27.001-29.41-41.992a1 1 0 0 1 .505-1.394c42.831-17.541 70.137-44.432 82.601-58.901a1 1 0 0 1 1.125-.278l14.224 5.617c3.81 1.504 8.339.925 11.824-1.513 3.468-2.48 5.421-6.49 5.087-10.459-.378-3.943-2.932-7.224-6.83-8.763l-57.853-22.845a.999.999 0 0 1-.532-1.366l10.936-22.548c1.575-2.937 1.761-6.273.529-9.188-1.097-2.603-3.198-4.627-5.917-5.7a11.3 11.3 0 0 0-1.009-.345 22.07 22.07 0 0 1-.591-.136c-.296-.071-.562-.135-.911-.2-5.461-.855-11.122 2.206-13.43 7.283l-10.946 22.571a1 1 0 0 1-1.267.494l-60.021-23.701c-2.524-.996-5.436-.871-8.198.354-3.184 1.411-5.79 4.125-6.972 7.261-2.111 5.604.891 11.462 7.138 13.928l100.879 39.835a1 1 0 0 1 .374 1.6c-13.114 14.503-35.751 34.576-69.122 47.848a.999.999 0 0 1-1.3-.563c-10.28-26.121-11.593-44.465-11.709-46.47-.175-4.152-2.738-7.69-6.688-9.25a11.707 11.707 0 0 0-1.241-.41c-3.822-1.016-7.988-.111-11.142 2.42-3.171 2.503-4.842 6.242-4.479 10.007.15 2.216 1.755 22.21 12.403 50.425a.999.999 0 0 1-.695 1.324c-20.418 5.057-40.33 6.995-60.875 5.92a1.043 1.043 0 0 1-.156-.021c-4.499-.958-9.331.721-12.307 4.28-2.955 3.554-3.564 8.3-1.55 12.09 1.166 2.193 3.126 3.922 5.521 4.868 1.682.664 3.564.934 5.437.781.045-.003.089-.004.134-.002a227.62 227.62 0 0 0 72.935-7.987c.087-.023.177-.034.266-.034z" fill="#111"/><path d="m596.877 174.858 16.17 36.243c23.189 51.975 24.991 108.715.031 160.18-54.754 112.895-217.562 157.663-363.625 99.984-48.723-19.24-89.409-47.45-119.983-80.688l-16.17-36.243c30.574 33.238 71.261 61.448 119.983 80.688 146.063 57.678 308.871 12.91 363.625-99.984 24.961-51.466 23.158-108.206-.031-160.18" fill="#3658c1"/><path d="M380.347 497.511c-43.911 0-88.688-8.505-131.261-25.316-47.156-18.621-88.773-46.61-120.352-80.941a1.009 1.009 0 0 1-.177-.27l-16.17-36.243a.999.999 0 0 1 1.649-1.085c31.375 34.11 72.738 61.923 119.615 80.434 43.029 16.992 87.584 25.042 130.376 25.045 101.767.006 193.653-45.507 231.981-124.536 23.863-49.201 23.847-105.788-.044-159.336a1 1 0 1 1 1.826-.815l16.17 36.243c24.136 54.096 24.142 111.282.018 161.023-26.609 54.864-79.243 95.522-148.207 114.485-27.489 7.561-56.266 11.312-85.424 11.312zM130.316 390.02c31.363 34.056 72.682 61.825 119.504 80.314 43.029 16.992 87.584 25.042 130.376 25.045 101.766.006 193.653-45.507 231.981-124.536 23.863-49.201 23.847-105.788-.044-159.336l-4.124-9.242c13.221 45.517 9.819 91.925-10.203 133.208-26.609 54.864-79.243 95.522-148.207 114.485-68.889 18.943-145.843 13.968-216.686-14.007-45.162-17.834-85.242-44.258-116.29-76.617z" fill="#111"/></svg></g></svg>