<svg id="visual" viewBox="0 0 960 150" width="960" height="150" xmlns="http://www.w3.org/2000/svg" xmlns:xlink="http://www.w3.org/1999/xlink" version="1.1"><rect x="0" y="0" width="960" height="150" fill="#021526"></rect><path d="M0 17L10.7 21.2C21.3 25.3 42.7 33.7 64 51.5C85.3 69.3 106.7 96.7 128 101.5C149.3 106.3 170.7 88.7 192 80.3C213.3 72 234.7 73 256 82.2C277.3 91.3 298.7 108.7 320 104.8C341.3 101 362.7 76 384 67.5C405.3 59 426.7 67 448 77.3C469.3 87.7 490.7 100.3 512 91.5C533.3 82.7 554.7 52.3 576 39.7C597.3 27 618.7 32 640 33C661.3 34 682.7 31 704 37C725.3 43 746.7 58 768 74C789.3 90 810.7 107 832 108.7C853.3 110.3 874.7 96.7 896 94C917.3 91.3 938.7 99.7 949.3 103.8L960 108L960 151L949.3 151C938.7 151 917.3 151 896 151C874.7 151 853.3 151 832 151C810.7 151 789.3 151 768 151C746.7 151 725.3 151 704 151C682.7 151 661.3 151 640 151C618.7 151 597.3 151 576 151C554.7 151 533.3 151 512 151C490.7 151 469.3 151 448 151C426.7 151 405.3 151 384 151C362.7 151 341.3 151 320 151C298.7 151 277.3 151 256 151C234.7 151 213.3 151 192 151C170.7 151 149.3 151 128 151C106.7 151 85.3 151 64 151C42.7 151 21.3 151 10.7 151L0 151Z" fill="#03346E" stroke-linecap="round" stroke-linejoin="miter"></path></svg>