<svg id="visual" viewBox="0 0 900 300" width="900" height="300" xmlns="http://www.w3.org/2000/svg" xmlns:xlink="http://www.w3.org/1999/xlink" version="1.1"><rect x="0" y="0" width="900" height="300" fill="#003161"></rect><path d="M0 115L16.7 119C33.3 123 66.7 131 100 142.2C133.3 153.3 166.7 167.7 200 161.3C233.3 155 266.7 128 300 117.5C333.3 107 366.7 113 400 135C433.3 157 466.7 195 500 199.3C533.3 203.7 566.7 174.3 600 180.2C633.3 186 666.7 227 700 234C733.3 241 766.7 214 800 204C833.3 194 866.7 201 883.3 204.5L900 208L900 301L883.3 301C866.7 301 833.3 301 800 301C766.7 301 733.3 301 700 301C666.7 301 633.3 301 600 301C566.7 301 533.3 301 500 301C466.7 301 433.3 301 400 301C366.7 301 333.3 301 300 301C266.7 301 233.3 301 200 301C166.7 301 133.3 301 100 301C66.7 301 33.3 301 16.7 301L0 301Z" fill="#03346E" stroke-linecap="round" stroke-linejoin="miter"></path></svg>