<svg id="visual" viewBox="0 0 900 300" width="900" height="300" xmlns="http://www.w3.org/2000/svg" xmlns:xlink="http://www.w3.org/1999/xlink" version="1.1"><rect x="0" y="0" width="900" height="300" fill="#03346E"></rect><path d="M0 185L25 192.5C50 200 100 215 150 221.2C200 227.3 250 224.7 300 214.7C350 204.7 400 187.3 450 179.7C500 172 550 174 600 183.7C650 193.3 700 210.7 750 207.5C800 204.3 850 180.7 875 168.8L900 157L900 301L875 301C850 301 800 301 750 301C700 301 650 301 600 301C550 301 500 301 450 301C400 301 350 301 300 301C250 301 200 301 150 301C100 301 50 301 25 301L0 301Z" fill="#003161" stroke-linecap="round" stroke-linejoin="miter"></path></svg>