<svg id="visual" viewBox="0 0 900 300" width="900" height="300" xmlns="http://www.w3.org/2000/svg" xmlns:xlink="http://www.w3.org/1999/xlink" version="1.1"><rect x="0" y="0" width="900" height="300" fill="#03346E"></rect><path d="M0 137L16.7 135C33.3 133 66.7 129 100 133.7C133.3 138.3 166.7 151.7 200 144C233.3 136.3 266.7 107.7 300 122.3C333.3 137 366.7 195 400 191.5C433.3 188 466.7 123 500 96.5C533.3 70 566.7 82 600 87C633.3 92 666.7 90 700 85.3C733.3 80.7 766.7 73.3 800 88.8C833.3 104.3 866.7 142.7 883.3 161.8L900 181L900 301L883.3 301C866.7 301 833.3 301 800 301C766.7 301 733.3 301 700 301C666.7 301 633.3 301 600 301C566.7 301 533.3 301 500 301C466.7 301 433.3 301 400 301C366.7 301 333.3 301 300 301C266.7 301 233.3 301 200 301C166.7 301 133.3 301 100 301C66.7 301 33.3 301 16.7 301L0 301Z" fill="#021526" stroke-linecap="round" stroke-linejoin="miter"></path></svg>